<?xml version="1.0" standalone="no"?>
<!DOCTYPE svg PUBLIC "-//W3C//DTD SVG 20010904//EN"
 "http://www.w3.org/TR/2001/REC-SVG-20010904/DTD/svg10.dtd">
<svg version="1.0" xmlns="http://www.w3.org/2000/svg"
 width="96.000000pt" height="96.000000pt" viewBox="0 0 96.000000 96.000000"
 preserveAspectRatio="xMidYMid meet">
<metadata>
Created by potrace 1.15, written by Peter Selinger 2001-2017
</metadata>
<g transform="translate(0.000000,96.000000) scale(0.100000,-0.100000)"
fill="#000000" stroke="none">
<path d="M330 941 c-111 -35 -213 -118 -272 -221 -83 -143 -78 -360 11 -499
39 -60 125 -142 177 -169 138 -70 330 -70 469 0 55 29 150 122 184 182 86 151
82 364 -8 505 -39 60 -125 142 -177 169 -106 54 -273 69 -384 33z m282 -42
c258 -86 379 -364 264 -605 -160 -337 -632 -337 -792 -1 -114 241 5 518 261
606 81 27 186 28 267 0z"/>
<path d="M372 874 c-63 -17 -82 -26 -144 -71 -52 -38 -128 -143 -128 -177 0
-12 -6 -28 -12 -34 -21 -21 -17 -186 5 -249 11 -31 25 -53 33 -53 23 0 134 59
134 72 0 6 -16 32 -37 57 l-36 46 51 -50 c50 -48 53 -49 84 -37 17 6 33 10 36
8 2 -2 -6 -7 -17 -11 -12 -3 -21 -12 -21 -19 0 -14 51 -46 73 -46 18 0 51 87
36 96 -6 3 -4 11 4 17 23 18 105 435 91 459 -8 12 -93 8 -152 -8z"/>
<path d="M596 778 c-24 -113 -89 -307 -131 -396 -19 -40 -35 -80 -35 -88 0
-27 168 -84 287 -98 58 -7 73 3 118 79 106 180 49 428 -127 544 -87 59 -91 57
-112 -41z"/>
<path d="M213 303 c-35 -21 -63 -43 -63 -51 0 -23 31 -61 80 -97 68 -50 80
-47 118 30 18 36 32 71 32 78 0 15 -74 77 -92 77 -7 0 -41 -17 -75 -37z"/>
<path d="M362 183 c-27 -46 -37 -72 -31 -80 17 -20 109 -36 178 -30 65 5 181
41 181 57 0 4 -21 13 -47 19 -27 7 -89 32 -140 57 -51 24 -94 44 -96 44 -3 0
-23 -30 -45 -67z"/>
</g>
</svg>
