<?xml version="1.0" standalone="no"?>
<!DOCTYPE svg PUBLIC "-//W3C//DTD SVG 20010904//EN"
 "http://www.w3.org/TR/2001/REC-SVG-20010904/DTD/svg10.dtd">
<svg version="1.0" xmlns="http://www.w3.org/2000/svg"
 width="152.000000pt" height="153.000000pt" viewBox="0 0 152.000000 153.000000"
 preserveAspectRatio="xMidYMid meet">
<metadata>
Created by potrace 1.15, written by Peter Selinger 2001-2017
</metadata>
<g transform="translate(0.000000,153.000000) scale(0.100000,-0.100000)"
fill="#000000" stroke="none">
<path d="M680 1519 c-259 -21 -485 -179 -606 -424 -54 -110 -74 -198 -74 -335
0 -138 20 -225 74 -335 105 -210 274 -349 491 -405 108 -28 282 -28 390 0 266
68 477 280 546 547 26 104 26 282 0 385 -54 210 -204 397 -396 492 -131 64
-266 88 -425 75z m290 -89 c472 -160 642 -712 339 -1103 -273 -354 -825 -354
-1098 0 -302 391 -128 955 340 1102 92 29 101 30 234 26 91 -2 136 -8 185 -25z"/>
<path d="M690 1400 c-209 -22 -403 -153 -499 -338 -23 -46 -40 -90 -37 -98 3
-8 1 -14 -4 -14 -18 0 -32 -108 -28 -220 3 -84 10 -132 27 -180 36 -104 33
-103 161 -40 60 30 110 59 110 66 0 6 -10 19 -21 30 -23 21 -141 170 -153 194
-4 8 9 -5 30 -30 54 -65 174 -180 188 -180 29 0 222 80 233 97 21 33 110 474
128 640 7 61 6 63 -20 73 -14 5 -32 9 -38 9 -7 -1 -41 -5 -77 -9z"/>
<path d="M961 1298 c-22 -113 -79 -320 -125 -453 -25 -71 -41 -132 -36 -133 6
-2 1 -11 -9 -20 -24 -21 -114 -220 -107 -237 14 -38 316 -130 462 -141 l82 -7
51 69 c192 260 158 640 -79 857 -65 60 -151 114 -196 123 l-31 6 -12 -64z"/>
<path d="M588 609 c-43 -21 -78 -44 -78 -49 0 -11 102 -80 118 -80 11 0 64
149 56 161 -8 13 -11 12 -96 -32z"/>
<path d="M340 476 c-58 -35 -106 -70 -108 -78 -4 -20 83 -113 153 -163 64 -46
95 -55 113 -32 23 28 102 194 101 212 0 13 -25 39 -69 73 -38 28 -72 52 -77
52 -4 0 -55 -29 -113 -64z"/>
<path d="M626 373 c-4 -9 -31 -58 -61 -108 -30 -51 -55 -94 -55 -98 0 -11 96
-37 175 -47 99 -13 209 1 306 37 60 22 100 47 88 57 -2 1 -49 17 -105 34 -55
17 -149 56 -209 87 -60 30 -114 55 -121 55 -6 0 -15 -8 -18 -17z"/>
</g>
</svg>
