<?xml version="1.0" standalone="no"?>
<!DOCTYPE svg PUBLIC "-//W3C//DTD SVG 20010904//EN"
 "http://www.w3.org/TR/2001/REC-SVG-20010904/DTD/svg10.dtd">
<svg version="1.0" xmlns="http://www.w3.org/2000/svg"
 width="1024.000000pt" height="3003.000000pt" viewBox="0 0 1024.000000 3003.000000"
 preserveAspectRatio="xMidYMid meet">
<metadata>
Created by potrace 1.15, written by Peter Selinger 2001-2017
</metadata>
<g transform="translate(0.000000,3003.000000) scale(0.100000,-0.100000)"
fill="#000000" stroke="none">
<path d="M1701 29888 c-9 -41 -9 -53 1 -60 10 -6 8 -8 -4 -8 -22 0 -44 -38
-30 -52 6 -6 30 -12 54 -15 40 -5 45 -3 56 21 24 54 6 133 -37 156 -27 14 -26
15 -40 -42z"/>
<path d="M377 27123 c7 -2 22 -25 32 -49 l20 -44 42 6 c48 8 47 -6 0 -31 -17
-8 -31 -25 -33 -40 -3 -14 -3 -23 0 -20 3 2 11 0 18 -6 19 -15 31 16 14 35 -9
12 -7 17 9 25 11 6 29 12 40 14 11 2 24 6 27 10 11 11 34 8 34 -4 0 -6 -7 -9
-15 -5 -8 3 -15 1 -15 -4 0 -12 20 -13 36 -2 16 11 10 51 -11 66 -10 7 -15 17
-12 22 10 17 -54 15 -79 -1 -22 -14 -27 -14 -53 0 -17 8 -33 19 -36 25 -3 5
-12 10 -18 9 -9 0 -9 -2 0 -6z"/>
<path d="M817 27106 c12 -16 20 -20 25 -12 5 7 8 6 9 -4 0 -10 3 -8 9 5 7 17
9 16 9 -10 1 -45 -11 -58 -35 -40 -10 8 -23 14 -29 15 -5 0 -4 -4 4 -9 17 -11
24 -41 9 -41 -5 0 -2 -7 7 -16 11 -12 13 -20 6 -27 -6 -6 -11 -24 -11 -39 0
-32 -6 -35 -32 -11 -10 9 -18 11 -18 5 0 -6 -12 -9 -30 -7 -16 2 -32 -1 -35
-6 -4 -5 8 -9 24 -9 17 0 31 -4 31 -10 0 -5 3 -9 8 -9 20 3 32 -3 32 -17 0 -8
-4 -13 -9 -10 -5 3 -11 -1 -14 -9 -5 -12 -2 -12 21 -3 15 7 32 16 37 21 7 7 6
8 -2 3 -6 -3 -14 -2 -18 4 -8 14 18 13 32 -1 6 -6 9 -18 6 -25 -3 -8 1 -14 11
-14 9 0 16 -5 16 -11 0 -6 9 -9 20 -6 12 3 27 -2 36 -11 15 -15 16 -14 10 6
-8 23 5 28 38 16 13 -5 14 -9 5 -20 -9 -11 -8 -14 5 -14 9 0 16 -5 16 -11 0
-7 10 -9 25 -5 14 4 25 2 25 -4 0 -11 -2 -11 -40 -14 -14 -1 -35 -7 -47 -14
-29 -16 -31 -16 -26 11 3 17 -3 25 -29 36 -18 8 -49 18 -68 21 -21 4 -34 11
-32 19 1 7 -2 10 -8 6 -6 -3 -7 -11 -4 -17 5 -8 -1 -9 -17 -5 -13 4 -33 7 -44
7 -18 1 -18 2 3 10 12 5 22 17 22 25 0 13 -8 16 -35 12 -19 -3 -35 -1 -35 5 0
12 -89 0 -115 -17 -28 -17 -71 -26 -89 -19 -9 3 -16 18 -17 33 0 14 -3 20 -6
14 -2 -7 -11 -13 -19 -13 -17 0 -48 46 -39 60 8 13 -8 13 -22 -1 -8 -8 -17 -8
-32 0 -26 15 -27 41 -2 48 11 3 22 11 25 18 3 10 -2 9 -25 -2 -16 -8 -29 -22
-29 -31 0 -14 -2 -14 -9 -3 -5 7 -20 14 -35 14 -16 0 -28 6 -31 18 -4 11 -11
19 -16 19 -6 0 -6 -7 -1 -17 5 -10 7 -24 5 -30 -3 -7 0 -13 6 -13 7 0 5 -10
-5 -25 -16 -24 -18 -25 -40 -10 -33 21 -33 20 -32 -30 0 -25 5 -45 10 -45 6 0
8 6 5 14 -9 23 19 41 38 26 13 -11 13 -15 3 -21 -10 -6 -9 -11 6 -22 11 -8 16
-19 12 -26 -9 -14 -32 7 -38 35 -3 17 -4 17 -10 2 -8 -20 36 -71 71 -83 14 -4
19 -10 13 -14 -6 -3 -12 -31 -14 -61 -3 -52 -4 -55 -35 -61 -18 -3 -53 -3 -78
2 -55 10 -75 4 -75 -25 0 -12 -9 -29 -20 -39 -28 -24 -25 -36 13 -53 l32 -15
-32 6 -33 7 0 -106 c0 -94 2 -105 19 -111 10 -3 23 -5 27 -3 19 4 94 -14 94
-24 0 -6 8 -7 17 -4 10 4 14 4 10 0 -10 -11 23 -44 43 -44 10 0 20 10 24 23 4
16 13 23 37 24 43 3 60 20 53 52 -9 34 -43 91 -56 91 -5 0 -22 9 -38 20 -26
19 -40 18 -40 -3 0 -5 19 -27 42 -48 47 -43 42 -49 -18 -20 -32 16 -41 17 -49
7 -8 -11 -16 -11 -39 -2 -22 9 -29 19 -31 44 -2 17 -1 32 1 32 1 0 15 -11 30
-25 50 -46 61 -27 13 23 l-30 31 36 -6 c29 -5 34 -3 29 10 -3 8 -13 18 -22 22
-18 7 -19 6 100 69 59 31 88 30 88 -4 0 -11 5 -20 10 -20 6 0 9 6 8 13 -3 13
5 13 36 1 15 -6 17 -4 11 7 -5 8 -4 11 0 6 17 -15 14 -39 -3 -32 -12 4 -14 3
-6 -5 12 -12 47 -3 38 11 -3 5 0 9 7 9 10 0 10 3 1 12 -16 16 -15 33 1 20 8
-7 18 -7 27 -2 24 15 58 12 62 -6 2 -14 9 -12 37 12 27 22 33 25 28 10 -5 -12
-1 -26 9 -37 21 -23 37 -24 54 -4 7 8 16 12 21 9 5 -3 14 -2 19 1 6 4 -4 20
-25 39 -28 26 -32 35 -22 45 10 11 7 12 -17 7 -19 -5 -32 -3 -38 6 -6 10 -10
10 -18 -2 -12 -19 -26 -5 -35 38 -7 35 -11 32 67 37 34 2 37 0 32 -20 -4 -17
0 -24 16 -28 44 -11 66 14 33 38 -15 11 -15 13 3 23 13 7 33 7 66 -2 57 -14
65 -21 48 -41 -7 -9 -10 -18 -7 -22 4 -3 -3 -19 -14 -35 -14 -20 -27 -27 -38
-23 -13 5 -14 4 -3 -6 23 -24 14 -63 -23 -98 -31 -29 -49 -61 -26 -47 4 3 17
-2 27 -10 19 -15 19 -15 -1 -9 -16 5 -18 4 -7 -7 7 -7 27 -13 46 -13 33 -1 33
-1 25 29 -9 31 -24 46 -48 46 -11 0 -10 4 3 19 10 11 24 17 32 14 8 -3 14 1
14 10 0 45 84 8 95 -42 3 -17 3 -35 0 -41 -4 -6 1 -18 11 -25 16 -12 17 -17 7
-34 -11 -17 -10 -19 3 -14 8 3 21 -3 30 -13 12 -17 13 -17 8 -1 -3 9 -1 17 5
17 6 0 11 -5 11 -11 0 -5 4 -8 9 -4 5 3 16 -2 24 -10 9 -9 23 -12 33 -8 12 4
15 3 10 -5 -4 -7 -14 -12 -23 -12 -14 0 -14 -3 2 -20 18 -20 18 -21 -3 -27
-17 -4 -20 -9 -12 -23 9 -18 12 -18 58 -1 26 10 53 16 60 13 11 -3 11 0 0 18
-11 19 -11 23 2 28 24 8 110 106 105 120 -2 6 1 13 8 13 7 1 26 3 42 4 62 6
95 11 100 16 2 3 0 32 -5 64 -8 47 -7 62 4 73 11 11 17 12 34 1 17 -11 24 -11
34 -1 10 10 8 17 -10 34 -21 21 -22 21 -42 3 -11 -10 -20 -14 -20 -10 0 14 53
65 67 65 7 0 13 5 13 10 0 14 -69 80 -83 80 -6 0 -19 8 -30 18 -11 9 -17 11
-13 5 5 -9 0 -13 -13 -13 -12 0 -21 -6 -21 -12 -1 -8 -6 -5 -15 5 -7 11 -12
24 -9 31 5 14 -52 50 -66 41 -6 -3 -10 -14 -10 -23 1 -15 2 -15 15 1 13 18 14
18 25 -2 15 -30 5 -41 -33 -37 -18 3 -39 5 -47 6 -8 1 -4 5 9 9 23 6 23 7 7
24 -25 24 -45 22 -38 -5 3 -14 2 -19 -6 -14 -7 4 -12 15 -12 25 0 21 43 34 58
19 6 -6 12 -6 16 0 3 6 -3 13 -14 17 -24 8 -26 28 -5 45 8 7 15 8 15 3 0 -6
17 -13 38 -16 21 -4 63 -25 97 -50 104 -75 146 -100 157 -89 7 7 -9 20 -48 39
-35 17 -58 34 -56 42 2 8 -3 11 -12 8 -23 -9 -76 40 -76 69 0 13 -4 24 -10 24
-5 0 -10 -5 -10 -11 0 -21 -79 66 -86 95 -5 21 -4 28 6 24 14 -4 25 -20 34
-50 3 -10 13 -18 23 -19 10 0 32 -17 48 -37 17 -20 23 -32 15 -27 -8 4 -3 -3
11 -16 27 -26 138 -84 153 -80 5 1 6 -5 3 -13 -6 -16 12 -26 46 -26 29 0 122
-36 122 -46 0 -5 4 -15 9 -22 4 -7 -15 -1 -43 14 -29 14 -54 24 -57 21 -3 -3
14 -14 38 -25 66 -30 85 -47 71 -64 -9 -10 -9 -20 0 -38 10 -20 19 -24 46 -22
l33 4 -17 -26 c-14 -22 -15 -26 -3 -26 11 0 14 -15 14 -65 -1 -36 -4 -65 -8
-65 -5 0 -8 -6 -8 -13 0 -8 -9 -22 -19 -31 -25 -23 -65 -13 -58 14 7 27 -5 39
-30 29 -14 -5 -21 -14 -17 -23 3 -8 12 -12 20 -9 8 3 14 -1 14 -11 0 -9 -8
-16 -19 -16 -11 0 -39 -22 -64 -50 -25 -27 -48 -50 -52 -50 -4 0 -20 -9 -36
-21 -24 -17 -27 -23 -17 -39 10 -15 9 -23 -3 -37 -9 -10 -19 -26 -22 -35 -9
-24 -22 -22 -40 6 -12 17 -13 26 -4 35 6 6 8 11 4 11 -12 0 -56 -72 -51 -84 6
-15 51 -31 131 -47 71 -13 78 -10 159 80 35 39 47 61 51 94 6 48 29 107 43
107 6 0 10 -5 10 -11 0 -7 10 -9 28 -4 15 4 38 9 51 11 13 3 31 14 40 26 16
20 19 20 49 4 32 -16 43 -36 20 -36 -6 0 -9 -2 -7 -5 3 -2 22 0 43 6 21 6 35
13 32 16 -3 3 -1 13 4 23 6 11 4 24 -6 39 -9 12 -13 30 -9 41 4 12 2 20 -5 20
-6 0 -8 -5 -5 -11 5 -7 -3 -9 -21 -7 -18 2 -28 8 -26 17 2 8 -3 11 -12 8 -8
-3 -20 0 -26 8 -9 11 -6 14 12 18 17 3 14 5 -10 6 -20 0 -31 -3 -27 -9 4 -6
-5 -10 -19 -10 -14 0 -26 4 -26 9 0 11 35 21 73 21 24 0 27 4 27 35 0 24 5 35
15 35 18 0 18 5 5 31 -15 27 -27 24 -33 -10 -5 -23 -13 -30 -46 -39 -50 -12
-54 2 -7 19 36 13 49 51 15 42 -18 -5 -35 29 -24 47 9 15 42 12 60 -6 20 -20
29 -13 12 9 -6 9 -27 19 -46 22 -19 3 -38 8 -43 11 -4 3 -5 -3 -1 -13 6 -16 5
-16 -10 -4 -9 7 -17 18 -17 23 0 5 -7 20 -16 33 -14 21 -19 23 -38 13 -19 -10
-20 -10 -8 5 17 21 10 32 -35 54 -50 23 -83 56 -83 82 0 11 -3 21 -8 21 -4 0
-16 16 -26 35 -11 19 -23 35 -29 35 -5 0 -4 7 3 15 8 9 10 28 6 50 l-7 35 -59
-1 c-33 -1 -57 -5 -55 -10 3 -4 12 -6 19 -3 19 7 48 -25 44 -50 -2 -16 -11
-22 -40 -24 -30 -3 -37 0 -32 11 3 8 -9 28 -26 46 -26 25 -39 31 -76 31 l-45
0 18 -24 c10 -14 29 -30 42 -36 13 -6 21 -13 18 -16 -3 -3 -13 -1 -24 4 -10 5
-31 16 -48 23 -16 7 -36 18 -44 23 -7 6 -28 11 -46 12 -26 0 -35 -4 -39 -20
-3 -11 0 -26 6 -33 6 -8 8 -17 4 -21 -9 -8 -46 35 -46 53 0 7 6 15 13 18 7 2
8 8 3 13 -5 5 -11 4 -13 -3 -3 -7 -10 -13 -16 -13 -7 0 -12 -11 -12 -25 0 -15
5 -23 12 -21 6 3 14 -2 17 -11 5 -12 1 -14 -14 -10 -12 3 -17 1 -14 -5 3 -5
-3 -12 -14 -15 -15 -4 -24 -18 -31 -54 -6 -28 -11 -56 -11 -63 0 -10 -12 -12
-47 -8 -56 6 -104 22 -85 29 6 3 12 12 12 21 -1 14 -4 13 -19 -4 -13 -16 -22
-19 -34 -12 -10 5 -15 14 -11 19 3 5 2 9 -3 8 -21 -4 -28 3 -29 26 -2 20 3 25
25 27 84 5 142 19 138 31 -2 7 -14 11 -25 10 -13 -2 -26 5 -32 17 -6 12 -17
17 -28 14 -16 -5 -16 -5 1 9 31 26 20 37 -39 37 -34 0 -53 -4 -49 -10 3 -5 1
-10 -4 -10 -6 0 -11 5 -11 10 0 6 -5 10 -10 10 -6 0 -3 -11 7 -24z m298 -495
c11 -5 25 -4 33 1 9 8 12 4 12 -15 0 -14 -5 -29 -10 -32 -6 -4 -4 -12 5 -21 8
-9 15 -31 15 -50 0 -27 -4 -34 -20 -34 -16 0 -20 -7 -20 -30 0 -20 -5 -30 -15
-30 -8 0 -15 6 -15 13 0 7 -8 28 -19 47 -15 29 -24 35 -50 35 -17 0 -31 -4
-31 -9 0 -5 -2 -7 -5 -4 -10 9 14 58 28 58 8 0 19 18 26 40 12 41 25 47 66 31z"/>
<path d="M4973 27090 c-123 -25 -177 -95 -115 -151 43 -39 80 -51 180 -57 l92
-5 0 106 c0 86 -3 106 -16 111 -21 8 -89 6 -141 -4z"/>
<path d="M2775 27079 c-64 -12 -82 -13 -125 -5 l-35 6 33 -13 33 -12 -31 -23
c-29 -22 -31 -27 -28 -75 l3 -52 50 -18 c106 -37 298 -6 367 60 69 66 4 125
-149 137 -37 2 -90 0 -118 -5z"/>
<path d="M1870 27003 c-3 -6 -12 -13 -20 -15 -8 -2 -21 -9 -28 -15 -18 -18
-35 -16 -29 2 4 8 2 17 -3 20 -5 3 -13 -7 -16 -22 -7 -25 -8 -25 -15 -8 -6 16
-8 17 -8 3 -1 -9 -7 -19 -13 -22 -7 -3 -4 -4 7 -3 17 2 20 -4 19 -30 -1 -18 2
-31 6 -28 12 8 41 -6 34 -16 -3 -5 -1 -9 4 -9 5 0 21 -11 35 -24 l26 -24 -5
42 c-7 49 9 69 30 40 7 -9 18 -14 25 -10 34 22 105 -50 80 -80 -10 -12 -15
-12 -35 1 -25 16 -34 5 -11 -12 19 -15 78 -33 88 -27 5 3 5 14 -1 25 -8 15 -7
19 3 19 8 0 17 9 20 20 3 13 0 20 -9 20 -8 0 -14 7 -14 15 0 8 -7 15 -15 15
-8 0 -20 9 -27 19 -6 10 -17 17 -23 14 -12 -4 -25 26 -25 57 0 13 1 13 10 0 5
-8 10 -10 10 -4 0 14 -25 36 -32 28 -3 -2 -17 -7 -31 -10 -19 -3 -27 1 -29 13
-2 10 -6 13 -8 6z"/>
<path d="M5854 26955 c-4 -8 0 -30 7 -47 11 -26 11 -32 -1 -36 -9 -3 -6 -9 10
-17 l23 -12 -22 -22 c-11 -11 -18 -21 -13 -22 4 0 -2 -4 -13 -8 -17 -7 -17 -8
8 -13 19 -4 27 -1 27 9 0 11 5 10 24 -2 13 -9 27 -23 30 -32 10 -24 -13 -85
-29 -79 -9 3 -16 -6 -21 -27 -8 -37 -24 -69 -41 -80 -7 -4 -13 -20 -13 -34 0
-22 2 -24 15 -13 10 8 12 17 7 22 -10 10 28 58 46 58 6 0 14 -9 17 -20 3 -11
10 -20 15 -20 5 0 7 -7 4 -15 -4 -10 0 -15 12 -15 16 0 17 2 4 10 -8 5 -11 10
-6 10 5 0 1 9 -9 20 -11 12 -16 29 -13 44 3 14 1 23 -3 20 -16 -9 -9 20 10 45
l18 23 28 -102 c15 -56 34 -104 41 -107 8 -3 23 -21 35 -41 12 -21 37 -53 55
-72 34 -36 84 -136 84 -168 0 -10 -14 -32 -30 -50 l-30 -33 -25 29 c-14 17
-25 39 -25 50 0 25 -63 67 -86 58 -12 -5 -15 -14 -10 -37 l6 -31 -28 17 c-15
10 -37 27 -49 38 -17 15 -23 17 -23 6 0 -8 -9 5 -19 27 -18 40 -37 61 -47 51
-3 -2 4 -29 16 -58 11 -30 20 -65 20 -78 0 -44 24 -106 56 -146 17 -22 34 -57
38 -77 4 -24 13 -38 21 -38 8 0 15 -4 15 -9 0 -16 -48 1 -71 25 -22 23 -51 92
-44 103 1 3 -10 6 -26 7 -32 1 -69 29 -69 51 0 19 18 16 23 -4 3 -13 5 -14 6
-3 1 22 -19 48 -26 33 -2 -7 -11 -13 -19 -13 -9 0 -12 -4 -9 -10 16 -26 -13
-5 -49 35 -39 43 -43 45 -83 39 -30 -5 -53 -17 -79 -42 -31 -30 -39 -34 -55
-24 -24 15 -26 -3 -4 -32 21 -28 19 -45 -10 -72 -17 -16 -25 -34 -25 -57 0
-30 5 -36 43 -53 60 -26 88 -54 76 -76 -7 -12 -6 -18 1 -18 7 0 10 -6 8 -12
-3 -8 -20 -12 -42 -11 -26 1 -40 -4 -48 -17 -6 -10 -18 -16 -26 -12 -12 4 -12
1 -3 -16 14 -27 -1 -37 -21 -14 -24 27 -32 63 -17 73 11 7 11 9 -2 9 -18 0
-42 -25 -53 -53 -4 -14 -1 -20 13 -24 11 -3 22 -12 25 -20 3 -8 10 -12 16 -8
5 3 15 -3 22 -15 7 -11 16 -20 21 -20 4 0 5 5 2 10 -7 11 18 40 34 40 6 0 11
-6 11 -14 0 -8 7 -16 15 -20 8 -3 15 -16 15 -30 0 -14 5 -28 11 -32 8 -5 10 3
7 24 -2 17 0 34 6 36 6 2 1 5 -11 5 -28 1 -37 15 -18 31 8 7 15 9 15 4 0 -5
12 -10 27 -11 24 -1 25 1 12 11 -20 14 -19 60 1 63 8 2 22 -1 30 -7 13 -8 13
-12 1 -32 -13 -21 -13 -22 2 -9 15 12 17 11 17 -7 0 -11 -8 -23 -17 -25 -13
-4 -12 -5 5 -6 12 0 26 -9 29 -18 10 -28 43 -45 43 -23 0 6 -6 10 -13 10 -8 0
-19 11 -25 25 -15 32 -15 38 -1 29 8 -5 8 -1 0 14 -21 39 -14 62 22 69 17 4
35 6 38 5 4 -1 5 7 2 18 -7 25 21 37 43 19 13 -11 54 -84 54 -97 0 -3 -9 3
-20 13 -19 17 -20 17 -20 -1 0 -26 20 -53 27 -36 9 22 23 2 23 -32 0 -18 9
-45 20 -58 10 -14 16 -28 13 -32 -3 -3 3 -6 15 -6 15 0 22 -6 22 -19 0 -26
-83 -130 -129 -160 -69 -46 -117 -121 -77 -121 8 0 17 -6 19 -12 3 -8 6 -6 6
4 1 10 11 23 24 29 33 17 166 161 173 187 5 18 9 21 15 10 7 -10 9 -9 9 5 0 9
5 17 11 17 7 0 9 -11 6 -27 -4 -23 -3 -25 7 -12 13 19 44 11 66 -17 10 -12 11
-15 2 -10 -10 6 -11 -3 -6 -45 5 -38 4 -50 -5 -45 -6 4 -11 3 -11 -3 0 -5 6
-11 12 -13 10 -4 10 -10 0 -32 -7 -15 -10 -32 -6 -37 3 -6 -4 -7 -19 -4 -22 6
-24 4 -20 -19 6 -29 -8 -34 -27 -11 -7 8 -20 15 -29 15 -13 0 -14 -2 -2 -9 13
-8 13 -12 1 -26 -12 -15 -17 -10 -42 40 -31 62 -33 69 -18 60 6 -3 7 1 4 9 -3
9 -14 16 -23 16 -9 0 -12 -3 -6 -8 9 -7 15 -25 18 -64 1 -9 5 -14 9 -12 4 3 8
-10 8 -29 0 -26 6 -37 25 -47 14 -7 25 -18 25 -24 0 -6 4 -4 10 4 6 9 5 17 -2
21 -7 4 -6 13 2 28 9 18 14 20 25 11 8 -7 19 -9 26 -5 8 5 9 1 4 -14 -6 -21 8
-30 20 -11 4 6 11 8 16 5 5 -4 9 1 9 9 0 9 -6 13 -14 10 -7 -3 -16 2 -20 11
-4 13 -1 15 13 10 15 -5 22 1 31 30 6 19 15 33 19 30 5 -2 6 6 4 19 -3 13 0
27 6 30 15 10 26 -41 12 -58 -7 -9 -8 -17 -3 -20 9 -5 26 29 23 47 -1 10 11 9
48 -4 28 -10 34 -9 46 7 11 15 15 16 16 4 1 -8 1 -19 0 -25 -1 -5 6 -1 14 9
15 19 16 19 57 -4 58 -31 79 -50 71 -64 -4 -6 -8 -18 -8 -26 -4 -46 -6 -51
-17 -44 -8 5 -9 2 -5 -10 5 -12 -4 -26 -27 -47 -37 -32 -62 -84 -45 -94 5 -4
7 -11 4 -16 -4 -5 5 -9 19 -9 14 0 29 -7 34 -16 5 -9 23 -17 40 -18 17 -1 29
0 27 4 -7 11 24 42 35 35 9 -6 9 -2 0 14 -11 21 -11 74 1 69 7 -4 39 28 39 40
0 5 42 9 95 8 88 -1 100 2 96 27 0 4 3 7 8 7 12 0 42 -60 36 -71 -3 -4 -1 -11
5 -14 8 -5 7 -12 -2 -23 -7 -10 -8 -14 -4 -10 5 4 14 4 21 -2 8 -6 10 1 7 27
-4 32 -2 35 14 29 11 -3 4 5 -14 20 -18 14 -30 29 -27 34 3 5 -4 11 -15 15
-11 3 -20 11 -20 17 0 6 -3 8 -6 5 -4 -4 -25 9 -46 29 -28 24 -45 33 -59 29
-14 -5 -19 -2 -19 14 0 11 6 19 13 17 6 -1 9 -1 5 1 -5 3 -8 13 -8 22 0 10 -8
26 -19 35 -17 16 -19 16 -26 -1 -5 -10 -7 -22 -6 -26 1 -5 -3 -6 -8 -3 -5 4
-12 2 -15 -2 -8 -13 -142 56 -169 86 -12 15 -37 39 -55 55 -19 15 -29 27 -23
27 5 0 13 -4 16 -10 12 -19 44 -11 42 10 -1 13 -6 19 -15 15 -7 -3 -22 0 -33
5 -15 9 -17 15 -9 30 6 11 10 30 9 43 -5 59 0 73 30 75 18 1 31 -3 35 -13 3
-8 13 -15 21 -15 9 0 14 -4 11 -9 -3 -5 1 -12 10 -15 8 -3 13 -10 9 -15 -7
-12 12 -24 25 -16 8 5 7 12 -2 23 -11 13 -11 14 2 10 17 -5 22 -69 5 -80 -5
-4 4 -8 21 -8 16 0 36 -6 44 -12 12 -11 12 -10 2 3 -17 23 -5 54 15 38 7 -7
12 -18 9 -25 -3 -9 1 -11 12 -7 9 4 19 9 22 12 12 14 50 30 50 21 0 -5 7 -7
15 -4 8 4 22 1 30 -6 13 -11 13 -14 -2 -26 -17 -13 -17 -13 1 -14 15 0 17 -3
9 -11 -9 -9 -5 -21 14 -50 22 -34 28 -37 50 -28 31 12 36 11 28 -1 -3 -5 -2
-10 4 -10 5 0 12 4 15 9 7 10 46 3 46 -8 0 -4 -3 -11 -7 -15 -11 -10 -10 -50
2 -58 5 -4 -1 -19 -15 -35 l-25 -28 26 22 c32 29 52 17 72 -42 12 -36 11 -44
-3 -70 -10 -17 -14 -32 -9 -35 4 -3 5 -17 2 -32 -4 -19 -10 -25 -22 -21 -14 5
-14 4 1 -8 15 -13 14 -17 -17 -53 -28 -32 -37 -37 -49 -27 -12 10 -13 9 -9 -8
7 -28 -23 -28 -32 0 -4 11 -13 18 -20 15 -19 -7 -27 5 -14 21 9 10 8 13 -5 13
-10 0 -14 -4 -11 -10 3 -5 0 -10 -7 -10 -10 0 -10 -2 1 -9 11 -7 11 -9 0 -14
-8 -3 -5 -6 8 -6 12 -1 28 -7 35 -14 32 -32 78 -41 78 -15 0 6 -7 5 -17 -3
-16 -12 -16 -11 0 8 11 12 25 19 32 17 17 -7 28 -36 17 -43 -5 -3 -13 -17 -17
-31 -12 -39 -64 -110 -81 -110 -9 0 -35 12 -59 26 -31 18 -51 23 -67 18 -13
-4 -62 -7 -110 -7 -64 0 -88 -3 -92 -13 -8 -22 -36 -16 -45 9 -11 27 -40 54
-83 75 -30 16 -33 21 -33 65 0 41 3 49 23 53 12 4 22 10 22 14 0 8 -43 5 -58
-4 -5 -3 -15 1 -22 9 -7 8 -17 15 -23 15 -6 0 -22 10 -36 23 -14 12 -9 3 12
-21 20 -23 37 -47 37 -54 0 -6 7 -19 16 -29 14 -16 14 -21 -7 -57 l-23 -39 33
-42 c25 -32 42 -42 72 -47 22 -4 42 -11 45 -15 3 -5 15 -9 28 -9 12 0 27 -5
33 -11 14 -14 53 -2 53 16 0 20 44 29 71 14 17 -9 24 -9 27 0 6 18 22 13 33
-11 9 -21 9 -21 4 5 -7 36 12 36 68 -4 37 -26 47 -29 70 -20 15 6 27 18 27 27
0 12 6 14 29 9 26 -6 32 -2 46 25 9 17 19 29 24 26 4 -3 8 16 9 42 2 44 19
102 29 102 3 0 18 -11 35 -25 16 -14 36 -25 44 -25 8 0 14 -7 14 -16 0 -9 15
-39 33 -66 l32 -51 5 33 5 33 33 -28 c18 -15 36 -24 40 -20 4 4 1 10 -5 12
-14 5 -17 35 -6 47 4 4 6 22 5 40 -2 23 2 35 13 40 9 3 13 10 10 16 -3 5 1 10
9 10 9 0 16 5 16 10 0 12 -22 9 -32 -5 -5 -6 -16 -5 -30 4 -21 13 -22 13 -9
-2 7 -10 21 -17 30 -17 14 -1 14 -2 -2 -11 -13 -8 -21 -6 -33 5 -8 9 -20 16
-25 16 -5 0 -6 18 -3 42 5 28 4 39 -4 34 -6 -3 -13 3 -17 14 -7 22 -20 26 -30
10 -9 -15 14 -120 33 -150 16 -23 16 -24 0 -12 -19 15 -33 55 -43 119 -4 23
-13 47 -21 54 -8 6 -14 18 -14 26 0 13 3 13 15 3 12 -10 15 -10 15 3 0 9 -7
22 -15 31 -8 8 -15 28 -15 44 0 62 -13 122 -32 142 -10 11 -16 26 -12 32 4 7
7 29 5 50 -2 34 1 38 21 38 17 0 19 3 9 9 -10 7 -11 13 -2 27 6 11 11 13 11 7
0 -7 7 -13 15 -13 9 0 18 -7 21 -15 4 -8 15 -15 25 -15 11 0 22 -7 25 -15 6
-15 34 -21 34 -7 0 4 4 13 9 20 9 15 35 5 75 -31 20 -17 20 -17 0 -31 -17 -13
-15 -13 18 -3 20 6 34 15 32 18 -2 4 5 10 16 14 12 4 34 32 51 68 18 34 35 64
40 65 5 2 9 17 9 32 0 29 -33 70 -56 70 -13 0 -27 27 -20 39 3 4 -4 12 -14 18
-16 10 -17 9 -12 -10 3 -12 12 -32 20 -44 16 -25 11 -28 -19 -13 -10 6 -19 19
-19 29 0 11 -7 21 -15 25 -8 3 -12 12 -9 21 3 8 11 12 18 8 16 -10 -16 29 -37
45 -12 9 -16 21 -11 35 6 22 6 22 -9 2 -8 -11 -13 -23 -11 -27 3 -4 -2 -5 -10
-2 -15 6 -19 15 -13 32 1 4 5 6 10 4 4 -1 7 3 7 9 0 6 -6 9 -14 6 -7 -3 -19 0
-25 6 -14 14 -41 18 -41 5 0 -6 -19 -9 -45 -6 -45 3 -49 -7 -5 -15 20 -3 18
-5 -9 -6 -19 0 -40 -9 -47 -18 -13 -17 -15 -17 -34 6 -15 17 -18 27 -9 37 7 9
7 18 0 33 -15 27 -14 44 3 38 12 -5 12 -1 0 23 -8 16 -28 33 -45 39 -19 7 -28
15 -23 22 4 7 3 9 -3 6 -5 -3 -20 1 -32 10 -17 12 -22 22 -18 42 4 20 0 30
-14 39 -27 17 -24 33 5 28 23 -4 24 -2 19 32 -3 20 -7 39 -9 41 -2 2 1 12 7
22 7 15 6 19 -6 19 -8 0 -15 8 -15 18 0 10 -19 38 -42 62 l-41 45 7 -35 c11
-52 14 -65 16 -65 6 0 10 -140 4 -153 -4 -9 -9 -30 -11 -47 -2 -16 -11 -35
-19 -41 -8 -6 -14 -16 -14 -21 0 -17 -35 -42 -47 -35 -13 8 -29 62 -18 62 3 0
16 -5 27 -11 41 -22 46 25 11 117 -6 17 -5 17 11 5 9 -8 15 -20 12 -27 -3 -8
0 -11 10 -7 13 5 12 9 -6 28 -26 27 -34 27 -83 -4 -37 -22 -56 -23 -43 -2 4 6
13 8 21 4 25 -9 17 32 -11 61 -15 14 -21 26 -14 26 10 0 10 3 0 15 -10 12 -10
18 0 30 7 9 10 19 6 22 -4 4 -11 2 -15 -6 -6 -10 -10 -9 -15 4 -4 11 2 23 16
34 12 11 23 31 24 49 1 17 5 36 9 44 3 7 -2 3 -13 -9 -11 -13 -26 -23 -34 -23
-10 0 -10 -2 1 -9 11 -7 9 -10 -7 -15 -17 -6 -21 -14 -18 -37 2 -21 -1 -29
-13 -29 -14 0 -14 -2 -1 -10 8 -5 11 -12 7 -16 -4 -4 -12 -3 -18 3 -8 8 -6 19
7 39 l18 29 -20 -18 c-12 -10 -28 -15 -38 -11 -19 7 -15 25 17 89 14 28 19 58
18 100 -1 33 3 66 8 74 6 10 3 23 -11 42 -17 23 -19 33 -10 56 20 55 21 63 6
78 -20 20 -54 19 -54 -1 0 -9 10 -25 23 -35 l22 -20 -23 6 c-27 8 -39 -14 -23
-44 8 -15 7 -23 -4 -35 -8 -8 -15 -24 -15 -35 0 -12 -12 -28 -27 -38 -16 -9
-30 -18 -32 -20 -3 -2 6 -15 20 -29 19 -20 24 -36 24 -80 0 -30 -3 -54 -8 -54
-4 0 -6 -4 -3 -8 3 -5 0 -9 -7 -10 -7 0 -31 -4 -53 -8 -40 -6 -43 -5 -113 61
-39 37 -68 71 -65 76 3 5 -1 9 -8 9 -18 0 -43 45 -53 95 -5 22 -9 42 -10 45 0
3 -6 15 -13 27 -14 25 -8 63 15 103 l14 25 -19 -22 c-22 -25 -34 -20 -56 27
-9 19 -25 49 -35 65 -11 17 -20 42 -20 57 -1 31 -18 46 -27 23z m-6 -915 c31
-29 29 -55 -6 -57 -15 -1 -62 -13 -104 -27 -90 -28 -121 -25 -116 12 3 27 3
27 88 66 68 31 109 32 138 6z m452 -142 c0 -6 -7 -8 -15 -4 -8 3 -15 1 -15 -4
0 -6 4 -10 10 -10 5 0 9 -16 8 -35 -1 -19 -5 -35 -10 -35 -5 0 -6 -4 -3 -10 3
-5 -1 -10 -10 -10 -9 0 -13 -4 -10 -10 3 -5 -2 -10 -11 -10 -10 0 -15 -3 -11
-6 7 -8 -17 -34 -32 -34 -11 0 15 56 31 66 7 4 6 9 -3 14 -10 7 -10 11 0 24 9
11 10 16 2 16 -6 0 -11 -5 -11 -11 0 -5 -4 -8 -9 -5 -5 3 -14 -1 -21 -9 -8 -9
-8 -15 -2 -15 6 0 13 6 16 13 3 6 4 1 3 -13 -2 -26 -37 -43 -37 -18 0 8 -13
27 -30 43 -33 31 -31 45 6 45 13 0 24 5 24 10 0 6 5 10 10 10 6 0 8 -11 4 -26
-5 -19 -4 -25 5 -20 6 4 11 14 11 22 0 10 9 14 28 12 24 -3 27 0 24 25 -4 28
-4 29 22 12 14 -10 26 -22 26 -27z m-211 -198 c19 -35 25 -39 38 -28 26 21 43
18 43 -7 0 -13 5 -27 10 -30 12 -8 5 -71 -10 -90 -8 -10 -8 -14 2 -18 7 -3 4
-6 -7 -6 -22 0 -65 31 -65 47 0 5 -6 12 -14 15 -24 9 -57 133 -39 150 12 13
19 7 42 -33z"/>
<path d="M3533 26861 c-38 -24 -49 -55 -32 -90 19 -38 60 -81 79 -81 28 0 59
30 71 69 29 96 -36 151 -118 102z"/>
<path d="M3023 26728 c1 -80 5 -144 9 -141 5 2 6 -14 3 -36 -3 -23 -1 -41 4
-41 5 0 7 -10 3 -22 -3 -13 -1 -19 5 -15 9 6 22 -18 27 -47 2 -14 56 -18 72
-5 9 7 14 30 13 63 -1 40 -3 45 -8 22 -10 -46 -28 -11 -26 49 3 57 -9 92 -20
63 -4 -10 -12 -18 -18 -18 -6 0 -1 10 11 23 22 23 30 57 13 57 -11 0 -46 75
-56 120 -4 19 -14 44 -21 54 -11 16 -13 -3 -11 -126z"/>
<path d="M2355 26830 c-4 -6 0 -22 9 -35 12 -18 12 -25 3 -28 -9 -3 -9 -9 -1
-22 11 -20 54 -31 54 -15 0 6 5 10 10 10 15 0 12 -43 -6 -68 -15 -22 -15 -23
10 -16 16 4 26 2 26 -5 0 -6 -7 -11 -16 -11 -8 0 -12 -4 -9 -10 3 -5 30 -10
59 -10 l53 0 2 69 c1 40 -3 72 -9 76 -6 3 -7 11 -4 17 5 7 2 8 -7 2 -31 -19
-68 -2 -48 22 12 15 -10 24 -72 31 -29 3 -50 0 -54 -7z"/>
<path d="M7237 26812 c6 -4 14 -21 18 -37 4 -17 11 -40 17 -52 12 -24 4 -58
-11 -48 -6 3 -15 -4 -21 -15 -6 -11 -15 -18 -21 -15 -5 4 -7 11 -4 16 11 16
-7 9 -20 -8 -13 -17 -14 -17 -33 1 -24 21 -53 15 -96 -21 -24 -20 -38 -24 -80
-21 -44 3 -53 7 -62 29 -10 22 -17 25 -45 22 -25 -2 -29 -1 -14 5 17 8 16 10
-10 17 -17 5 -34 7 -40 5 -5 -1 -15 -3 -22 -3 -7 0 -10 -4 -8 -8 8 -11 -6 -40
-16 -33 -5 3 -6 -3 -2 -12 5 -15 2 -16 -25 -11 -30 6 -31 6 -14 -12 13 -14 22
-15 41 -7 19 8 26 7 37 -9 16 -22 18 -35 4 -35 -5 0 -10 -7 -10 -16 0 -9 -9
-25 -20 -34 -13 -11 -17 -21 -10 -25 12 -8 13 -35 1 -54 -7 -10 -23 -5 -80 29
-39 23 -68 46 -65 51 3 5 1 8 -4 7 -19 -6 -53 46 -51 77 3 51 -20 89 -48 78
-10 -4 -11 -9 -2 -19 9 -11 8 -14 -2 -14 -8 0 -4 -7 9 -16 12 -8 22 -26 22
-39 0 -24 43 -97 55 -95 4 1 16 -16 27 -37 10 -21 33 -49 51 -63 18 -13 26
-17 18 -7 -12 15 -12 17 4 10 15 -5 17 -3 11 13 -7 18 -6 18 10 2 9 -9 17 -28
17 -43 0 -15 6 -29 14 -32 8 -3 12 -12 9 -20 -3 -8 -2 -11 3 -8 6 3 38 -10 74
-30 35 -19 74 -35 88 -35 46 0 57 3 52 17 -7 19 58 9 92 -13 23 -15 28 -15 36
-3 5 8 9 22 9 32 0 9 5 17 10 17 6 0 10 -4 10 -10 0 -5 11 -10 25 -10 18 0 29
-8 37 -27 l11 -28 8 43 c4 23 12 48 16 55 4 6 8 21 9 32 0 11 4 45 8 75 5 39
3 72 -8 114 -17 64 -16 66 37 97 9 5 17 16 17 24 0 8 7 18 16 23 12 7 13 17 6
58 -8 45 -9 47 -17 22 -4 -16 -13 -28 -21 -28 -17 0 -19 27 -1 33 9 4 9 6 -1
6 -7 1 -17 12 -22 26 -5 14 -15 25 -22 25 -10 0 -10 -2 -1 -8z"/>
<path d="M2488 26603 c-38 -3 -52 -10 -73 -34 -14 -17 -25 -39 -25 -50 0 -11
-4 -18 -9 -14 -5 3 -13 1 -16 -5 -4 -6 -1 -9 6 -8 12 3 14 -9 10 -42 -1 -13
-21 -9 -39 8 -11 10 -17 10 -28 1 -10 -8 -14 -8 -14 0 0 6 -4 11 -8 11 -4 0
-6 -15 -4 -34 3 -29 9 -35 33 -38 16 -3 30 1 33 8 3 7 18 15 35 19 34 7 35 9
22 33 -7 13 -3 22 15 35 22 17 24 16 48 -8 14 -14 34 -25 45 -25 14 0 21 -8
24 -27 3 -19 4 -15 4 12 0 22 -6 50 -14 63 -11 18 -11 26 -1 45 14 24 19 58 9
55 -3 -1 -27 -3 -53 -5z"/>
<path d="M531 26497 c-1 -22 9 -37 36 -62 45 -40 41 -68 -9 -65 -60 4 -64 2
-46 -16 21 -22 151 -32 172 -14 13 10 13 15 0 35 -18 28 -12 42 22 55 13 5 24
15 24 22 0 10 -3 9 -9 -1 -5 -8 -16 -11 -25 -8 -10 4 -19 1 -22 -8 -7 -18 -47
-20 -75 -4 -18 9 -19 12 -5 22 8 7 18 24 22 40 6 24 4 27 -22 27 -15 0 -25 -3
-21 -6 3 -3 -2 -15 -11 -25 -17 -19 -17 -19 -23 8 l-7 28 -1 -28z"/>
<path d="M780 26325 c-25 -14 -53 -25 -63 -25 -10 0 -22 -11 -27 -25 -5 -14
-14 -25 -20 -25 -15 0 -6 -52 15 -84 15 -22 20 -24 39 -14 11 7 25 11 29 10 5
-2 -1 11 -13 28 -24 34 -22 43 19 60 16 6 32 21 34 32 5 16 11 19 29 14 13 -3
33 -6 46 -6 28 0 29 -23 2 -50 -24 -24 -26 -45 -4 -36 9 3 18 6 20 6 2 0 4 8
4 18 0 10 7 27 16 38 14 18 15 17 11 -13 -3 -28 0 -32 27 -37 20 -4 35 -1 45
8 12 13 12 18 -3 40 -9 14 -22 26 -30 26 -7 0 -33 13 -57 30 -52 35 -61 36
-119 5z"/>
<path d="M1850 26300 c0 -5 19 -10 42 -10 41 0 41 0 23 -20 -10 -11 -21 -17
-24 -13 -6 8 -27 15 -48 16 -7 0 -9 5 -6 10 4 6 -1 8 -11 4 -10 -4 -20 -7 -22
-7 -2 0 -4 -7 -4 -15 0 -17 -36 -39 -55 -31 -17 6 -29 -24 -15 -38 8 -8 9 -6
5 7 -4 9 -3 17 3 17 8 0 22 -22 22 -34 0 -2 -9 -13 -20 -26 -26 -30 -25 -58 2
-87 21 -22 21 -24 3 -17 -20 7 -20 6 0 -9 17 -13 18 -18 7 -29 -11 -11 -16
-10 -26 4 -13 17 -48 15 -73 -4 -7 -5 -17 -7 -23 -3 -6 4 -16 3 -23 -2 -7 -5
-22 -10 -35 -11 -12 0 -28 -7 -36 -14 -7 -8 -33 -22 -57 -32 -122 -49 -175
-89 -162 -122 9 -23 -16 -16 -43 13 -21 22 -27 25 -34 13 -19 -31 -26 6 -14
68 6 31 5 33 -17 30 -13 -1 -24 -8 -24 -15 0 -6 -3 -15 -7 -19 -5 -4 -8 -14
-7 -23 0 -12 2 -11 8 3 10 26 40 30 34 5 -3 -10 -9 -19 -14 -19 -5 0 -9 -6 -9
-13 0 -7 -22 -21 -50 -32 -27 -11 -50 -24 -50 -31 0 -21 -35 -43 -68 -42 -33
1 -42 12 -18 21 8 3 20 16 27 29 11 20 11 22 -3 10 -14 -11 -19 -9 -37 14 -22
28 -28 54 -11 54 5 0 12 11 16 25 6 25 7 25 31 10 15 -10 34 -14 48 -11 19 5
24 2 27 -16 2 -15 10 -23 23 -24 15 -1 16 0 3 3 -29 7 -18 54 21 91 32 31 33
34 17 50 -11 11 -33 17 -62 17 -38 0 -50 -5 -71 -29 -20 -23 -27 -26 -34 -15
-5 8 -4 15 1 17 16 6 -13 28 -53 41 -40 14 -59 8 -50 -14 4 -11 1 -13 -10 -9
-9 3 -14 11 -11 18 3 7 -3 19 -13 27 -16 13 -17 12 -4 -3 11 -15 11 -19 -3
-24 -9 -3 -23 -1 -31 6 -11 9 -18 9 -30 -3 -18 -18 -5 -30 21 -20 12 5 15 3 9
-6 -6 -10 -3 -11 13 -2 27 14 32 14 32 -2 0 -8 11 -24 24 -36 29 -28 39 -60
21 -67 -30 -12 -51 -11 -72 2 -13 8 -23 11 -23 7 0 -5 -4 -3 -8 2 -4 6 -16 15
-28 21 -17 10 -22 9 -32 -6 -13 -21 -59 -23 -66 -3 -7 16 49 53 81 53 12 0 24
4 27 9 3 4 -7 6 -22 5 -15 -2 -21 -1 -14 2 6 3 12 12 12 20 0 9 -4 12 -10 9
-5 -3 -10 1 -10 9 0 8 -5 18 -12 22 -7 5 -9 2 -6 -8 6 -14 -23 -48 -41 -48 -4
0 -28 -11 -52 -23 -24 -13 -50 -22 -56 -20 -21 7 -15 -11 7 -25 12 -7 18 -17
15 -22 -3 -6 0 -10 7 -11 7 0 6 -3 -4 -7 -16 -7 -16 -10 5 -52 19 -38 28 -46
60 -51 20 -3 37 -2 37 3 0 4 7 8 15 8 18 0 20 -16 3 -23 -8 -3 -6 -6 5 -6 9
-1 17 6 17 14 0 16 25 21 34 6 3 -5 36 -12 73 -15 92 -10 103 -14 114 -42 5
-16 14 -23 21 -18 10 6 11 4 1 -7 -27 -28 -13 -35 77 -37 50 -2 90 1 90 5 -1
20 -19 35 -35 29 -9 -3 -26 1 -38 9 -20 14 -17 15 47 13 58 -1 69 -5 77 -22 8
-20 9 -20 6 -1 -1 11 -12 24 -24 30 -64 32 -61 67 5 60 20 -1 43 -3 50 -4 18
-1 32 -43 20 -58 -6 -7 -14 -11 -18 -8 -5 3 -6 -4 -3 -16 4 -12 0 -25 -8 -31
-10 -7 -4 -8 20 -4 31 6 32 5 20 -12 -8 -9 -18 -20 -24 -24 -6 -5 -3 -8 6 -8
9 0 19 6 22 14 3 7 19 16 37 19 21 5 29 11 24 19 -4 7 2 5 13 -4 25 -22 57
-24 49 -3 -8 22 11 18 48 -10 18 -14 37 -25 42 -25 5 0 2 5 -6 10 -10 6 -11
10 -2 10 6 0 12 7 12 15 0 8 -6 12 -14 9 -11 -4 -13 0 -9 15 7 29 31 26 39 -4
3 -14 12 -25 20 -25 8 0 14 -4 14 -10 0 -5 -7 -10 -15 -10 -8 0 -15 -5 -15
-10 0 -6 15 -8 40 -4 25 4 40 3 40 -4 0 -6 -6 -12 -12 -15 -7 -2 -10 -8 -6
-12 4 -5 17 4 29 19 17 21 27 26 46 21 19 -4 23 -3 17 7 -11 16 -6 45 11 72 7
12 16 36 20 54 5 23 18 40 46 57 21 14 43 25 48 25 5 0 11 6 14 13 2 6 8 9 12
5 5 -5 3 -20 -4 -34 -8 -18 -8 -30 -1 -38 7 -9 3 -19 -15 -36 -14 -13 -25 -29
-25 -36 0 -7 -13 -28 -29 -46 -16 -19 -31 -47 -33 -63 -2 -17 -8 -29 -15 -28
-7 2 -10 -4 -7 -12 4 -8 -1 -17 -10 -21 -21 -8 -48 -62 -33 -67 6 -2 8 -11 4
-21 -4 -10 -12 -14 -18 -10 -8 4 -9 3 -5 -4 4 -7 16 -12 26 -12 10 0 20 -5 22
-11 5 -16 48 -1 48 17 0 8 -10 28 -21 43 -29 39 -22 55 14 36 22 -11 34 -12
49 -4 11 6 26 8 34 5 20 -8 30 22 16 44 -9 14 -8 21 3 30 8 7 15 20 15 29 -1
14 -2 14 -11 -1 -5 -10 -16 -15 -24 -12 -9 4 -15 0 -15 -10 0 -11 -9 -16 -31
-16 -27 0 -30 3 -23 22 3 12 17 33 30 47 13 14 27 34 30 44 3 9 10 17 15 17 5
0 9 9 9 19 0 28 15 33 38 13 22 -18 30 -56 18 -84 -4 -9 -6 -25 -4 -35 2 -14
8 -9 25 19 15 26 18 40 11 44 -7 5 -5 12 7 21 18 12 18 13 -3 13 -27 0 -29 25
-4 39 13 7 22 7 30 -1 6 -6 18 -8 26 -5 18 7 22 27 5 27 -5 0 -7 -4 -4 -10 3
-5 2 -10 -4 -10 -16 0 -33 38 -21 45 7 4 8 11 1 18 -5 7 -8 34 -8 62 2 38 -2
50 -13 51 -33 2 -38 5 -44 21 -5 11 -1 22 9 29 15 11 14 13 -4 19 -22 7 -28
29 -11 40 6 3 10 15 10 27 0 14 5 18 15 14 25 -9 58 35 36 48 -5 3 -8 -2 -7
-11 2 -25 -31 -28 -44 -4 -9 17 -8 21 5 21 9 0 15 9 15 24 0 13 13 39 30 57
29 34 29 34 7 41 -35 10 -87 9 -87 -2z"/>
<path d="M1127 26267 c-23 -16 -48 -89 -36 -101 14 -15 11 -49 -6 -73 -13 -19
-13 -22 2 -27 9 -4 21 -2 27 4 6 6 15 6 25 -3 26 -21 70 -37 76 -27 3 4 19 11
36 15 23 5 28 10 19 20 -8 9 -8 15 0 20 5 3 13 -1 16 -9 9 -23 21 -20 27 6 7
24 -8 48 -29 48 -7 0 -24 -18 -36 -40 -22 -39 -43 -55 -32 -25 8 19 -15 77
-26 70 -5 -3 -12 -1 -15 5 -4 7 3 10 21 8 15 -2 29 2 31 9 3 7 -3 11 -14 8
-11 -2 -24 5 -31 16 -9 15 -8 20 6 28 15 9 14 10 -5 11 -17 0 -23 -6 -23 -21
0 -16 -4 -19 -22 -13 -33 9 -33 10 -10 49 24 39 23 41 -1 22z"/>
<path d="M284 26194 c-4 -10 -12 -25 -18 -33 -18 -22 -35 -103 -26 -126 9 -25
3 -45 -15 -45 -7 0 -16 6 -18 13 -4 9 -6 8 -6 -2 -1 -11 -4 -11 -16 -1 -13 11
-15 9 -15 -13 0 -22 16 -37 41 -37 5 0 9 7 9 15 0 8 5 15 10 15 6 0 10 -9 10
-20 0 -30 -65 -28 -81 2 -8 15 -14 18 -17 10 -2 -7 7 -21 20 -32 21 -18 21
-19 4 -20 -29 0 -11 -12 24 -16 37 -4 50 -11 50 -26 0 -7 -6 -6 -15 2 -14 11
-19 7 -16 -12 0 -5 -4 -8 -11 -8 -9 0 -9 -3 0 -12 15 -15 16 -38 2 -38 -5 0
-10 7 -10 15 0 8 -5 15 -12 15 -6 0 -9 -3 -5 -6 3 -4 0 -13 -8 -21 -12 -11
-12 -19 -4 -35 8 -15 8 -22 -1 -28 -8 -5 -9 -10 -2 -14 6 -4 9 -13 5 -21 -7
-20 11 -19 31 0 12 12 20 13 35 6 16 -9 20 -7 25 12 11 43 21 50 47 37 13 -7
34 -21 46 -32 12 -11 36 -21 55 -23 18 -2 54 -7 79 -10 48 -8 78 8 42 22 -16
6 -15 8 7 14 24 7 24 7 2 8 -28 1 -39 27 -23 53 8 12 8 17 2 13 -6 -3 -23 3
-37 14 -15 12 -44 26 -66 32 -24 6 -38 15 -35 22 5 13 -58 78 -67 70 -3 -3 -1
8 3 25 7 23 6 34 -5 43 -16 13 -12 80 8 132 9 23 8 31 -5 44 -15 15 -17 15
-23 -3z"/>
<path d="M2383 26189 c9 -5 17 -14 17 -18 0 -13 -29 -8 -34 6 -7 18 -46 -1
-46 -21 0 -8 -6 -16 -13 -19 -14 -5 -98 30 -108 45 -8 13 -143 -66 -147 -87
-6 -28 11 -36 42 -20 16 8 34 15 41 15 7 0 15 6 17 12 4 10 10 10 29 0 21 -10
21 -11 2 -7 -27 7 -37 -9 -22 -36 8 -16 8 -23 -1 -29 -9 -5 -9 -9 -1 -14 6 -4
11 -14 11 -23 0 -9 7 -21 16 -28 12 -8 15 -20 9 -43 -7 -33 -25 -44 -25 -16 0
8 -15 21 -34 29 -20 8 -38 25 -41 37 -13 40 -25 49 -42 33 -8 -9 -19 -13 -24
-10 -18 11 -9 -45 10 -64 11 -11 25 -29 31 -41 8 -15 17 -19 28 -15 46 19 54
19 47 -3 -5 -18 -3 -21 12 -15 15 5 16 4 5 -8 -7 -7 -22 -14 -35 -15 -36 -2
-56 -15 -50 -30 4 -11 8 -12 19 -3 18 15 20 13 27 -38 4 -38 3 -43 -14 -43
-11 0 -36 -8 -57 -19 -20 -10 -55 -24 -77 -31 -30 -9 -45 -20 -54 -41 -27 -61
13 -134 59 -109 11 6 20 9 20 6 0 -3 14 0 30 6 23 7 34 7 45 -2 12 -10 15 -9
15 8 0 29 19 37 35 16 13 -18 14 -18 24 8 5 14 14 29 20 32 6 4 7 14 4 23 -5
13 -2 15 11 10 10 -4 24 -7 32 -7 17 0 20 -65 3 -76 -8 -4 -9 3 -4 26 6 28 5
32 -10 27 -9 -4 -20 -7 -25 -7 -4 0 -13 -15 -21 -32 -7 -18 -21 -40 -31 -49
-17 -16 -17 -17 14 -23 30 -6 31 -7 12 -22 -10 -8 -13 -12 -5 -8 11 6 13 3 6
-12 -10 -25 -7 -76 5 -88 19 -19 10 -44 -20 -55 -17 -5 -33 -18 -37 -28 -4
-10 -15 -24 -26 -32 -10 -7 -16 -19 -13 -27 3 -7 0 -11 -7 -9 -7 3 -19 1 -27
-5 -13 -8 -12 -11 5 -24 11 -8 23 -12 27 -10 4 3 17 0 29 -7 17 -9 19 -13 8
-19 -7 -5 -17 -6 -21 -4 -5 3 -3 -6 4 -20 6 -14 14 -26 18 -26 4 0 10 -12 14
-27 3 -16 18 -37 32 -47 15 -11 24 -14 20 -8 -4 6 1 23 10 37 15 24 15 27 0
44 -20 22 -20 31 0 31 20 0 104 -49 104 -60 0 -23 -25 -61 -39 -59 -44 4 -56
-16 -24 -42 9 -8 14 -9 10 -3 -4 7 0 18 9 25 14 11 18 11 29 -4 7 -9 17 -17
23 -17 6 0 16 -9 22 -19 7 -15 6 -23 -6 -35 -9 -9 -11 -16 -4 -16 6 0 8 -4 5
-10 -3 -5 -1 -10 4 -10 6 0 11 -5 11 -11 0 -7 -10 -9 -25 -7 -32 7 -32 0 1
-12 14 -6 23 -14 20 -18 -8 -14 40 -66 55 -60 8 3 22 33 32 66 19 63 37 88 61
79 8 -3 17 1 20 9 8 21 24 17 28 -8 2 -13 11 -24 21 -26 15 -3 17 9 17 137 0
78 -3 142 -7 142 -5 1 -23 3 -41 5 -42 3 -46 7 -39 36 8 32 34 65 43 55 5 -4
2 -12 -6 -17 -13 -8 -12 -10 2 -10 24 0 53 31 38 40 -9 6 -9 9 1 13 8 4 1 4
-16 0 -16 -3 -36 -13 -42 -22 -33 -42 -55 -60 -70 -54 -8 3 6 -24 32 -61 51
-73 53 -95 7 -92 -21 1 -28 -2 -25 -11 3 -7 9 -10 14 -7 5 3 9 0 9 -5 0 -6 -4
-11 -10 -11 -5 0 -10 -7 -10 -15 0 -22 -15 -18 -18 5 -4 43 -6 49 -14 44 -4
-3 -8 0 -8 6 0 6 -4 9 -8 6 -13 -8 -82 13 -82 25 0 6 -4 8 -10 4 -5 -3 -16 8
-25 24 -18 36 -46 53 -72 45 -14 -5 -15 -4 -4 4 12 9 12 13 2 26 -16 19 -7 61
14 70 8 3 28 0 43 -6 15 -6 32 -10 38 -9 6 0 17 -6 24 -14 7 -8 18 -15 25 -15
8 0 16 -6 18 -12 3 -8 6 -6 6 5 1 9 5 17 10 17 5 0 5 12 -1 28 -9 22 -5 37 18
87 16 33 34 60 39 60 18 1 55 25 55 37 0 6 -8 4 -18 -5 -26 -24 -42 -21 -42 7
0 27 29 44 42 24 5 -9 8 -10 8 -1 0 6 -4 14 -10 18 -6 3 -5 15 2 31 17 37 -1
49 -46 30 -38 -16 -45 -35 -21 -60 8 -8 15 -19 15 -24 0 -11 -27 -26 -49 -26
-8 -1 -16 -7 -19 -14 -3 -11 12 -16 46 -15 19 1 14 -6 -20 -27 -40 -24 -48
-25 -48 -3 0 15 -2 14 -14 -2 -12 -17 -17 -18 -39 -6 -21 11 -29 10 -55 -3
-22 -11 -33 -13 -38 -5 -7 12 15 31 28 23 11 -7 10 1 -4 31 -6 14 -15 25 -20
25 -15 0 -8 30 8 37 8 3 26 29 40 58 24 53 97 121 116 109 5 -3 1 -12 -9 -19
-14 -11 -16 -18 -7 -32 15 -25 45 -29 60 -8 15 21 8 45 -15 46 -12 0 -11 3 7
16 29 21 28 32 -7 44 -15 6 -33 21 -39 34 -7 14 -20 25 -31 25 -28 0 -37 21
-17 36 16 12 17 15 3 34 l-15 22 -16 -31 c-9 -17 -22 -31 -29 -31 -27 0 -87
22 -87 31 0 14 65 39 97 38 47 -3 52 0 73 41 22 44 27 106 8 113 -10 4 -10 7
0 15 7 5 11 15 9 23 -2 8 -2 11 0 7 10 -17 46 -7 65 17 11 14 26 25 33 25 21
0 47 45 43 72 -2 17 -10 23 -30 23 -15 1 -30 4 -34 8 -4 4 -14 7 -23 7 -14 -1
-13 -2 2 -11z m-268 -489 c-4 -6 6 -10 23 -10 16 0 32 -3 36 -7 3 -4 -22 -34
-56 -67 -75 -71 -140 -96 -171 -67 -41 39 13 103 111 132 23 7 42 16 42 21 0
4 5 8 11 8 5 0 7 -4 4 -10z"/>
<path d="M2630 26135 c-13 -34 -13 -45 2 -45 9 0 9 -3 0 -12 -27 -27 -12 -34
60 -30 65 4 71 3 59 -11 -7 -9 -11 -24 -8 -34 4 -14 5 -14 6 4 1 29 29 43 83
43 l43 0 -1 -57 c-1 -32 1 -41 3 -20 3 29 9 37 24 37 17 0 24 10 20 32 0 4
298 8 663 8 l664 0 0 -36 c0 -19 3 -38 6 -41 3 -4 6 12 6 35 l0 42 396 0 c391
0 396 0 391 -20 -3 -11 -1 -23 4 -26 5 -3 9 6 9 20 0 21 5 25 38 29 l37 4 -37
1 c-38 2 -55 22 -19 22 27 0 34 15 15 31 -21 17 -50 -1 -46 -30 l3 -21 -375 0
c-369 0 -376 0 -376 20 0 15 -7 20 -25 20 -18 0 -25 -5 -25 -20 0 -20 -4 -20
-352 -17 -194 2 -357 4 -363 4 -5 0 -207 -2 -448 -4 l-438 -3 11 20 c6 12 9
26 6 33 -3 9 -5 9 -5 0 -1 -15 -31 -18 -31 -4 0 5 7 16 15 25 9 9 11 17 5 21
-5 3 -15 -6 -20 -20z"/>
<path d="M7559 25953 c-6 -16 -12 -37 -12 -49 -1 -11 -7 -21 -14 -21 -7 0 -10
4 -7 9 3 4 1 8 -4 8 -5 0 -12 -9 -15 -20 -3 -13 -14 -20 -29 -21 -21 0 -22 -1
-3 -9 14 -5 26 -2 40 9 19 15 19 15 5 -4 -20 -27 -53 -54 -65 -55 -5 0 -27
-16 -47 -35 -21 -18 -38 -31 -38 -26 0 4 5 12 12 19 9 9 8 12 -6 12 -14 0 -17
6 -14 25 3 13 1 22 -3 19 -5 -3 -9 -16 -9 -30 0 -16 -8 -28 -24 -35 -21 -10
-23 -14 -13 -45 9 -29 15 -34 36 -32 17 2 31 13 40 31 8 17 22 27 35 27 25 0
64 30 125 96 54 60 62 76 50 117 -12 44 -26 47 -40 10z"/>
<path d="M3710 25781 c-64 -10 -119 -39 -141 -75 -25 -40 -24 -49 6 -85 75
-88 321 -100 418 -20 48 40 50 79 6 120 -50 47 -189 76 -289 60z"/>
<path d="M5323 25748 c-53 -69 -14 -248 73 -332 40 -39 52 -43 60 -22 5 13
-32 91 -57 122 -11 14 -34 102 -43 166 -4 26 -12 50 -18 54 -7 4 -5 9 3 15 8
5 9 9 3 9 -6 0 -16 -6 -21 -12z"/>
<path d="M560 25705 c-7 -8 -23 -15 -37 -15 -13 0 -22 -4 -18 -9 9 -16 -25
-41 -55 -41 -16 0 -42 11 -58 25 -38 32 -42 31 -42 -6 0 -28 44 -91 113 -164
18 -18 -5 18 -36 58 -22 28 -27 44 -23 62 6 22 9 24 26 15 11 -6 20 -17 20
-25 0 -8 8 -15 18 -15 14 0 15 -2 2 -10 -12 -8 -12 -10 2 -15 10 -4 21 -4 26
-1 6 3 15 -1 22 -9 7 -8 36 -26 66 -40 30 -14 54 -30 54 -34 0 -5 9 -7 20 -4
13 4 22 -1 27 -13 3 -11 17 -29 30 -41 13 -12 23 -32 24 -45 0 -13 3 -17 6
-10 2 6 11 12 20 12 10 0 12 6 8 20 -11 34 9 22 33 -20 27 -48 27 -49 0 -42
-17 4 -20 2 -15 -11 11 -29 -6 -18 -77 48 -62 58 -86 75 -86 61 0 -3 11 -17
25 -32 22 -23 23 -29 11 -36 -21 -12 -10 -36 33 -75 20 -18 30 -33 24 -33 -7
0 -13 -3 -13 -8 0 -4 20 -6 44 -4 56 5 93 -13 75 -35 -8 -9 -22 -12 -38 -8
-53 12 -81 14 -81 6 0 -5 -13 -16 -28 -24 -25 -12 -33 -12 -63 2 -19 9 -43 25
-55 37 -16 17 -25 19 -39 12 -10 -6 -15 -7 -12 -1 4 5 -27 17 -70 26 -75 16
-76 16 -94 -4 -13 -15 -24 -19 -41 -13 -30 10 -76 7 -110 -7 -32 -13 -44 -52
-24 -81 8 -11 12 -27 9 -34 -3 -8 0 -14 7 -14 9 0 10 -11 6 -35 -7 -37 -1 -42
25 -22 17 14 35 52 19 42 -6 -3 -13 2 -17 11 -4 10 -2 19 4 21 5 2 8 14 6 27
-5 27 20 56 48 56 10 0 19 5 19 10 0 6 19 -2 41 -16 26 -16 40 -21 36 -12 -8
21 27 16 54 -8 12 -10 19 -14 16 -7 -9 15 7 25 27 17 22 -8 20 -21 -4 -29 -20
-6 -21 -14 -3 -62 3 -8 -14 -21 -43 -34 -44 -18 -50 -19 -60 -5 -10 14 -16 14
-43 3 -31 -13 -31 -14 -12 -31 12 -11 29 -16 40 -13 16 4 19 0 15 -22 -2 -14
-1 -21 3 -16 5 6 21 12 38 13 23 2 26 -1 17 -10 -21 -21 -13 -32 9 -12 11 10
18 26 16 35 -3 12 0 16 9 12 8 -3 14 -17 14 -32 0 -47 99 -75 115 -33 8 20
-28 52 -59 52 -17 0 -18 2 -6 10 12 8 12 10 -3 14 -9 4 -25 8 -34 12 -10 3
-13 8 -8 12 12 8 13 48 2 58 -4 4 -7 13 -7 20 0 10 6 11 25 4 20 -8 27 -6 31
5 7 18 31 20 36 4 2 -6 15 -13 29 -14 31 -3 101 -40 92 -49 -3 -3 -20 -6 -36
-6 -40 0 -32 -7 18 -14 21 -4 46 -13 55 -21 9 -8 21 -15 27 -15 12 0 83 -54
121 -92 13 -13 31 -23 40 -23 8 0 17 -6 20 -13 2 -7 -2 -10 -12 -6 -8 3 -22
-1 -30 -9 -13 -13 -13 -17 -1 -27 7 -6 16 -26 18 -43 4 -31 4 -30 5 6 2 26 7
37 18 37 19 0 94 -59 94 -74 0 -6 -4 -4 -10 4 -5 8 -12 11 -17 7 -9 -10 18
-28 30 -20 11 7 27 -16 27 -39 0 -12 -8 -18 -21 -18 -16 0 -19 4 -14 20 7 22
-5 26 -23 8 -7 -7 -12 -8 -12 -3 0 4 -9 -2 -20 -15 -21 -24 -25 -21 -33 30 -3
17 -5 12 -6 -14 -1 -27 5 -43 17 -52 16 -12 16 -14 0 -30 -10 -11 -23 -14 -35
-10 -17 7 -17 8 1 22 11 8 16 14 10 14 -5 0 -18 -7 -29 -16 -15 -11 -17 -18
-9 -32 14 -21 141 -32 128 -10 -6 11 -5 11 8 0 17 -14 70 -13 80 2 4 6 2 14
-5 18 -9 5 -7 15 6 37 14 24 15 30 3 34 -8 3 -17 1 -19 -6 -2 -7 -8 -8 -13 -3
-5 5 -4 11 4 13 6 3 9 9 6 15 -3 5 8 2 25 -7 18 -9 29 -20 26 -25 -3 -5 16
-12 42 -16 27 -4 68 -16 93 -27 25 -11 56 -22 70 -24 14 -2 29 -8 34 -14 13
-12 56 -12 56 0 0 11 -39 25 -47 18 -2 -3 -18 -1 -34 5 -24 8 -27 13 -18 25 7
7 18 12 26 9 8 -3 11 -1 8 5 -7 11 -46 2 -57 -14 -4 -6 -23 -2 -52 11 -25 12
-49 22 -53 22 -5 1 -21 19 -38 40 -22 28 -38 39 -57 40 -23 0 -28 5 -28 24 0
18 -13 32 -50 56 -53 34 -63 53 -13 26 15 -9 35 -20 43 -25 8 -4 36 -19 63
-32 26 -13 47 -26 47 -30 0 -3 6 -6 13 -6 20 0 149 -65 153 -78 3 -7 10 -12
17 -12 7 0 26 -2 42 -6 l30 -6 -28 12 c-38 15 -29 31 20 35 35 3 43 7 51 31 6
17 6 34 1 42 -5 8 -9 22 -9 32 0 36 -24 48 -77 38 -52 -10 -83 2 -50 20 9 6
17 16 17 24 0 8 6 12 15 9 8 -3 19 -2 26 2 7 4 25 8 40 9 25 2 27 1 18 -17 -8
-15 -7 -23 8 -34 10 -7 23 -14 29 -14 6 0 17 -6 23 -14 6 -7 22 -11 36 -8 15
2 25 0 25 -7 0 -6 -4 -11 -9 -11 -5 0 -12 -7 -15 -16 -5 -14 -4 -15 9 -4 12
10 18 10 32 -1 16 -14 75 -20 67 -7 -6 9 37 38 48 32 11 -7 10 7 -3 45 -6 17
-18 31 -27 31 -10 0 -25 7 -35 14 -18 14 -17 15 3 21 20 6 21 7 3 20 -17 13
-17 14 7 24 14 5 20 10 13 10 -6 1 -19 4 -29 8 -9 3 -15 2 -12 -3 10 -17 -10
-54 -27 -48 -8 3 -15 1 -15 -6 0 -6 -4 -9 -9 -6 -4 3 -14 -7 -21 -22 -12 -24
-14 -25 -18 -7 -2 11 -8 25 -13 31 -6 8 -4 14 6 18 8 3 15 12 15 20 0 8 18 25
39 37 26 14 37 27 34 37 -5 11 -1 13 15 8 12 -4 30 -3 40 3 20 10 52 -2 34
-13 -6 -4 -9 -13 -5 -22 4 -12 8 -12 21 -2 12 10 14 10 8 1 -4 -7 -2 -13 3
-13 6 0 11 -4 11 -10 0 -5 -6 -7 -14 -4 -11 4 -13 0 -9 -14 3 -13 13 -19 29
-18 30 1 31 24 4 59 -11 14 -20 30 -20 36 0 6 -5 11 -11 11 -5 0 -7 5 -4 10 4
6 1 9 -7 8 -7 -2 -12 2 -11 8 2 8 -13 11 -40 10 -40 -1 -42 0 -45 30 -3 26 -9
33 -40 43 -20 6 -50 9 -67 6 -16 -2 -53 -7 -80 -11 -51 -6 -51 -6 -52 -44 -2
-30 2 -39 18 -43 10 -3 22 -1 25 4 5 8 -9 13 -28 10 -4 0 -5 6 -2 14 5 11 10
12 24 3 23 -15 33 -48 16 -54 -8 -3 -11 -17 -8 -35 3 -20 0 -34 -9 -40 -10 -6
-7 -8 9 -6 18 1 22 8 23 37 1 19 3 27 6 18 2 -10 11 -18 19 -18 8 0 14 -5 14
-11 0 -6 -7 -8 -16 -5 -13 5 -15 2 -11 -14 3 -11 1 -18 -3 -15 -5 3 -13 -3
-19 -12 -9 -16 -12 -16 -20 -3 -9 13 -12 13 -23 -2 -14 -18 -68 -15 -68 4 0 6
7 7 15 4 8 -3 23 -9 33 -12 16 -5 16 -5 0 9 -10 8 -18 18 -18 22 0 4 6 2 14
-4 10 -8 16 -9 21 -1 3 5 1 10 -5 10 -6 0 -8 5 -5 10 4 6 10 8 14 5 5 -2 9 7
9 21 0 14 -9 31 -19 37 -11 7 -19 18 -19 25 0 9 -7 11 -19 7 -14 -4 -20 0 -23
19 -4 20 0 27 21 36 23 8 21 9 -9 3 -19 -4 -52 -7 -73 -5 -28 1 -40 -3 -49
-18 -7 -11 -20 -20 -29 -20 -8 0 -21 -10 -28 -23 -12 -23 -67 -51 -82 -41 -5
3 -6 -2 -3 -10 6 -15 -48 -51 -60 -39 -12 12 -6 36 12 49 10 8 12 13 5 14 -7
0 -22 9 -33 20 -11 11 -28 20 -37 20 -10 0 -26 7 -36 15 -18 13 -18 14 1 33
14 14 18 28 14 47 -3 16 0 30 8 35 9 6 8 14 -6 35 -18 28 -18 28 3 16 18 -9
26 -7 50 14 l28 25 -22 6 c-13 3 -23 13 -23 20 0 8 -9 14 -20 14 -11 0 -20 4
-20 10 0 5 14 7 33 4 51 -9 57 -12 57 -33 0 -10 7 -21 15 -25 9 -3 15 0 15 9
0 8 -3 15 -7 15 -12 0 -33 51 -27 62 3 5 12 7 19 4 8 -3 19 2 26 11 11 13 9
19 -16 39 -33 26 -71 30 -121 12 -26 -9 -38 -9 -57 1 -20 11 -29 10 -56 -3
-17 -9 -31 -14 -31 -10 0 4 -6 2 -13 -4 -21 -18 -154 20 -172 49 -4 5 0 20 9
33 14 22 13 25 -5 42 -16 14 -18 25 -13 66 7 51 4 57 -16 33z m732 -723 c5 -2
8 -19 8 -38 0 -23 -4 -33 -11 -28 -7 4 -9 0 -5 -14 4 -11 2 -23 -4 -27 -5 -3
-10 -1 -10 4 0 6 -5 11 -11 11 -6 0 -9 -7 -5 -15 3 -8 1 -15 -3 -15 -5 0 -12
6 -14 13 -3 7 -6 5 -6 -5 -1 -13 -9 -18 -31 -18 -16 0 -30 4 -30 10 0 5 -7 7
-14 4 -19 -7 -96 54 -96 75 0 20 46 71 63 71 8 0 8 -3 -2 -9 -14 -9 -7 -65 11
-88 15 -19 59 -16 74 5 28 36 6 92 -35 92 -11 0 -21 5 -21 11 0 6 7 8 16 5 45
-17 64 -18 70 -2 5 13 10 11 27 -12 12 -15 25 -28 29 -30z"/>
<path d="M2621 25308 c0 -197 3 -297 9 -287 6 10 12 34 14 55 2 22 8 51 14 65
16 39 26 123 15 116 -5 -4 -10 8 -10 26 0 18 -1 45 -1 61 -2 29 -3 29 -17 10
-14 -17 -15 -6 -10 119 5 94 3 137 -4 137 -7 0 -11 -94 -10 -302z"/>
<path d="M3539 25571 c-4 -24 5 -99 13 -115 6 -10 12 -37 14 -60 2 -22 7 -48
10 -58 3 -11 0 -20 -9 -23 -9 -4 -14 -25 -16 -68 -1 -34 -4 -77 -7 -96 -5 -29
-3 -33 11 -27 9 3 21 6 26 6 5 0 9 5 9 11 0 5 -6 7 -12 3 -10 -6 -10 -4 -2 7
6 8 12 21 13 29 5 58 14 89 25 83 6 -4 5 1 -2 10 -9 10 -15 51 -17 109 -2 58
-9 107 -20 132 -9 21 -14 44 -12 51 3 6 -1 12 -9 12 -8 0 -14 -3 -15 -6z"/>
<path d="M268 25518 c-2 -6 4 -20 14 -30 25 -25 12 -45 -13 -22 -17 16 -19 16
-19 1 0 -10 -6 -17 -12 -17 -7 -1 2 -7 20 -15 18 -8 31 -19 28 -24 -8 -13 4
-42 15 -35 5 3 6 -2 3 -10 -3 -9 -12 -16 -19 -16 -14 0 -28 27 -20 40 3 4 -4
6 -16 3 -15 -4 -22 0 -26 16 -3 11 -12 21 -19 21 -17 0 -17 -5 -4 -31 9 -15 7
-19 -7 -20 -41 -3 -69 3 -79 17 -6 7 -13 12 -15 10 -2 -3 -9 6 -16 20 -11 23
-10 24 22 24 19 0 45 -4 59 -10 20 -7 26 -6 26 4 0 20 -10 22 -85 18 -60 -3
-65 -5 -65 -27 0 -14 7 -25 20 -28 11 -3 20 -10 20 -16 0 -9 -5 -9 -20 -1 -17
9 -20 8 -20 -7 0 -10 7 -28 15 -40 12 -16 12 -22 2 -26 -6 -3 -2 -6 11 -6 12
-1 22 -5 22 -11 0 -5 5 -10 10 -10 6 0 10 8 8 18 -2 11 4 18 18 20 18 3 21 -2
19 -22 -3 -28 2 -31 25 -16 13 9 13 11 0 20 -19 12 -7 12 62 1 42 -7 48 -5 54
11 3 10 18 25 34 33 21 11 27 20 23 36 -4 16 -11 19 -29 15 -18 -5 -22 -3 -17
9 3 9 12 14 19 11 8 -3 11 0 8 9 -3 7 -1 22 5 32 6 12 6 25 0 34 -7 11 -9 9
-9 -9 0 -13 -4 -20 -10 -17 -6 4 -8 10 -5 15 3 4 -2 11 -11 14 -8 3 -12 10 -9
16 3 5 2 10 -4 10 -5 0 -11 -5 -13 -12z"/>
<path d="M3988 25383 c-17 -4 -23 -21 -18 -52 1 -8 -6 -21 -17 -28 -10 -8 -17
-16 -15 -18 7 -14 -1 -26 -25 -40 l-28 -16 27 5 c16 4 28 1 31 -7 3 -9 7 -9
20 1 14 12 15 11 4 -11 -6 -14 -16 -23 -22 -20 -5 2 -3 -1 6 -9 11 -9 14 -19
8 -33 -7 -19 -8 -19 -8 2 -1 27 -31 21 -31 -6 0 -12 2 -13 8 -3 6 9 14 2 28
-23 20 -38 22 -39 44 -25 12 7 15 32 16 109 0 58 -4 97 -9 94 -5 -3 -8 14 -6
41 2 25 4 45 4 45 0 -1 -8 -3 -17 -6z"/>
<path d="M1869 24968 c-1 -7 -1 -21 0 -30 1 -10 1 -18 -1 -19 -2 0 -23 -3 -48
-5 -47 -6 -76 -23 -52 -31 16 -6 -3 -33 -24 -33 -13 0 -13 10 -5 74 0 4 10 6
21 3 11 -3 20 -1 20 5 0 6 -12 8 -26 5 -17 -3 -24 -1 -20 8 3 8 -2 11 -13 8
-17 -4 -27 -48 -12 -57 5 -3 6 -37 3 -74 l-4 -69 38 -2 c22 0 50 -2 63 -4 14
-1 26 4 29 13 5 13 3 13 -13 0 -17 -14 -18 -13 -12 9 3 14 1 31 -4 38 -6 6 -8
17 -4 23 9 15 35 12 35 -5 0 -8 5 -15 11 -15 6 0 9 -7 5 -15 -7 -20 -4 -19 38
6 39 23 45 43 19 71 -21 24 -9 36 16 14 18 -16 19 -16 23 7 4 19 -3 31 -26 49
-46 36 -56 41 -57 26z"/>
<path d="M40 24852 c0 -27 51 -60 134 -87 40 -13 95 -37 122 -54 52 -32 139
-60 151 -48 4 4 -1 15 -11 25 -16 16 -17 16 -10 0 8 -23 3 -23 -40 3 -37 22
-47 39 -22 39 8 0 18 5 22 12 4 7 3 8 -4 4 -6 -4 -42 9 -80 29 -38 19 -76 35
-86 35 -9 0 -49 14 -88 30 -82 35 -88 36 -88 12z"/>
<path d="M2203 24801 c-24 -8 -46 -23 -49 -33 -3 -10 -13 -26 -22 -35 -16 -16
-16 -16 0 -11 9 4 22 0 29 -8 11 -13 9 -14 -17 -8 -16 4 -37 15 -47 25 -10 11
-24 19 -32 19 -12 0 -11 -7 5 -37 10 -20 17 -40 14 -45 -3 -4 11 -8 30 -8 40
0 48 -16 14 -30 -17 -6 2 -9 65 -9 75 -1 89 2 94 17 3 9 17 29 31 44 30 32 24
47 -10 24 -29 -21 -62 -21 -54 -1 15 38 18 50 8 36 -5 -7 -15 -10 -22 -6 -8 5
-7 12 5 25 10 11 13 24 8 37 -8 19 -10 19 -50 4z"/>
<path d="M2782 24733 l-2 -62 -82 -4 -83 -3 83 -2 c64 -2 82 -5 82 -17 0 -11
-18 -15 -82 -18 -46 -1 279 -3 722 -3 l805 1 -717 2 c-628 3 -718 5 -718 18 0
13 90 15 718 18 l717 2 -717 3 -717 2 -4 63 -3 62 -2 -62z"/>
<path d="M4500 24550 c0 -83 1 -90 20 -90 16 0 20 7 20 35 0 33 2 35 34 35 40
0 66 22 66 55 0 39 -25 55 -86 55 l-54 0 0 -90z"/>
<path d="M4660 24550 c0 -83 1 -90 20 -90 16 0 20 7 20 35 0 25 5 35 15 35 9
0 23 -16 32 -35 12 -25 23 -35 40 -35 23 0 23 1 8 31 -15 28 -15 34 -1 64 28
58 1 85 -83 85 l-51 0 0 -90z"/>
<path d="M4855 24615 c-35 -34 -35 -96 1 -132 21 -21 32 -24 62 -19 53 8 82
56 68 111 -16 64 -86 86 -131 40z"/>
<path d="M5160 24550 l0 -90 65 0 c58 0 65 2 65 20 0 17 -7 20 -45 20 -33 0
-45 4 -45 15 0 9 9 15 25 15 18 0 25 5 25 20 0 15 -7 20 -25 20 -16 0 -25 6
-25 15 0 11 11 15 40 15 33 0 40 3 40 20 0 18 -7 20 -60 20 l-60 0 0 -90z"/>
<path d="M43 24343 c3 -131 7 -259 9 -285 3 -27 1 -48 -4 -48 -11 0 -11 -267
0 -274 5 -3 34 2 65 10 53 14 58 13 121 -10 59 -22 67 -23 81 -10 8 9 15 20
15 26 0 6 9 8 19 5 12 -3 22 1 25 10 4 10 11 11 24 4 10 -5 24 -6 32 -1 7 4
19 6 27 3 7 -3 13 0 13 7 0 16 39 3 73 -26 40 -34 75 -32 79 3 4 36 58 55 86
29 10 -9 23 -16 28 -16 6 0 25 -14 43 -32 l32 -31 102 9 102 10 48 -30 c26
-16 47 -34 47 -41 0 -13 -98 -45 -135 -44 -33 0 -186 -21 -250 -34 -60 -13
-60 -13 -63 -51 -2 -27 -9 -40 -22 -43 -10 -3 -21 -11 -24 -19 -3 -7 -24 -23
-47 -35 -34 -17 -55 -20 -110 -17 -63 3 -73 7 -143 56 -49 34 -85 52 -104 52
-32 0 -93 44 -144 104 l-27 31 -1 -792 0 -793 1255 0 1255 0 0 781 c0 752 -1
780 -18 775 -10 -4 -56 -8 -102 -11 -87 -5 -117 -11 -137 -27 -7 -6 -31 -12
-53 -13 -52 -4 -60 -10 -60 -46 0 -70 -60 -109 -169 -109 -95 1 -146 26 -172
85 -16 35 -23 44 -33 36 -7 -6 -36 -13 -63 -16 -57 -6 -67 2 -88 62 -9 27 -25
43 -61 64 -27 16 -56 28 -65 29 -26 0 -51 24 -43 43 3 9 10 15 14 12 5 -3 40
-8 80 -11 65 -6 72 -5 86 15 18 26 31 27 37 4 4 -16 5 -16 6 -1 2 26 42 34 58
12 7 -10 13 -24 13 -31 0 -9 15 -12 51 -11 39 2 53 7 62 23 10 20 37 44 49 45
3 0 11 -12 16 -27 10 -26 10 -26 11 -5 1 13 5 20 11 17 6 -4 11 8 11 27 1 24
3 27 6 10 3 -17 10 -21 29 -18 18 4 24 0 24 -14 0 -10 4 -22 10 -25 6 -3 10 4
10 17 l1 23 13 -24 c10 -18 15 -20 19 -10 3 9 10 3 18 -18 17 -42 59 -48 59
-9 0 37 18 76 35 76 8 0 15 -5 15 -12 0 -9 3 -9 12 0 29 29 68 -2 68 -53 l0
-33 56 -4 c30 -1 62 0 69 5 8 4 16 4 18 -1 3 -4 26 -6 51 -4 l46 4 0 122 c0
82 -4 126 -12 134 -9 9 -9 12 0 12 7 0 12 5 12 12 0 9 -3 9 -12 0 -18 -18 -41
-15 -61 8 -21 25 -21 34 -1 51 14 11 14 13 0 21 -17 10 -22 58 -6 58 5 0 11
15 14 33 6 33 15 106 16 120 0 4 6 7 13 6 32 -4 38 4 7 11 l-35 7 33 2 c17 0
32 6 32 11 0 6 -11 8 -25 4 -15 -4 -25 -2 -25 5 0 6 11 11 25 11 l25 0 0 125
0 125 -1256 0 -1255 0 4 -237z m1208 -25 c38 -11 39 -12 39 -58 0 -105 14
-263 21 -245 5 12 8 14 8 6 1 -11 9 -8 29 10 15 14 45 33 67 42 28 12 34 13
22 3 -12 -9 -14 -16 -8 -21 6 -3 11 -13 11 -21 0 -19 -37 -18 -48 2 -8 15 -11
14 -25 -6 -13 -19 -14 -25 -2 -36 20 -21 31 -18 89 26 29 22 58 40 63 40 19 0
24 30 5 31 -14 0 -14 2 -2 6 18 7 44 34 48 51 1 7 -7 12 -18 12 -11 0 -20 6
-20 14 0 20 21 31 30 16 6 -9 10 -8 19 6 8 16 10 11 11 -28 0 -58 9 -86 21
-66 6 9 9 7 9 -8 0 -15 -8 -23 -27 -27 -16 -3 -43 -17 -62 -31 l-35 -26 28 0
c15 0 39 9 53 20 33 26 46 25 38 -1 -7 -21 -5 -21 50 -14 39 4 55 3 51 -4 -4
-5 -13 -8 -20 -5 -8 3 -17 1 -20 -4 -3 -6 -15 -8 -26 -5 -11 3 -32 -3 -47 -13
-16 -10 -31 -19 -35 -19 -5 0 -8 -4 -9 -10 -1 -5 -5 -18 -10 -27 -7 -13 -4
-18 11 -23 11 -3 20 -11 20 -17 0 -5 -7 -7 -16 -4 -9 3 -31 6 -50 6 -27 0 -34
4 -34 20 0 11 5 19 11 18 6 -2 22 14 36 36 l25 39 -26 -5 c-16 -3 -29 0 -34 8
-11 19 -52 -10 -52 -37 0 -10 -5 -19 -11 -19 -5 0 -7 6 -3 13 4 6 -2 4 -13 -5
-24 -22 -34 -23 -27 -3 4 8 1 15 -5 15 -6 0 -11 -9 -11 -20 0 -11 -7 -20 -15
-20 -8 0 -15 5 -15 10 0 7 -6 7 -20 0 -26 -14 -26 -30 1 -30 12 0 19 -5 17
-12 -3 -8 -27 -14 -64 -15 -32 -2 -72 -5 -89 -8 -20 -4 -42 0 -65 13 -19 10
-61 33 -92 50 -32 17 -78 45 -103 62 -41 28 -44 33 -30 47 9 8 14 23 11 32
-16 56 -16 79 -2 94 8 8 12 17 9 21 -3 3 -1 12 5 19 7 8 9 17 5 20 -3 4 -1 7
6 7 7 0 9 5 4 13 -14 22 -11 33 11 34 82 2 97 4 91 13 -9 14 12 12 44 -5 31
-16 41 -12 41 17 0 15 8 18 46 18 26 0 64 -5 85 -12z m-693 -52 c13 -5 22 -3
22 3 0 19 32 12 37 -9 3 -11 25 -31 50 -45 48 -29 55 -58 15 -63 -27 -4 -28
-13 -3 -29 11 -7 21 -23 23 -35 3 -20 8 -23 41 -20 32 3 39 0 44 -17 3 -12 10
-22 17 -22 6 -1 18 -2 26 -3 8 0 17 -16 21 -36 8 -39 6 -46 -13 -34 -7 5 -21
7 -31 5 -10 -1 -36 9 -58 23 -21 14 -42 26 -45 26 -4 0 -16 8 -27 17 -18 17
-19 17 -33 -2 -13 -18 -12 -21 8 -37 13 -10 29 -16 35 -13 15 5 100 -44 107
-62 4 -9 -4 -11 -26 -6 -26 5 -30 4 -25 -10 4 -10 2 -17 -4 -17 -6 0 -13 9
-16 21 -3 11 -11 18 -18 15 -7 -2 -30 12 -51 32 -41 38 -79 62 -98 62 -6 0
-19 9 -29 20 -10 11 -29 20 -46 20 -17 0 -31 6 -35 16 -4 10 -12 14 -22 10 -8
-3 -25 -1 -36 5 -16 8 -23 8 -29 -2 -6 -10 -9 -8 -9 8 0 12 4 24 9 27 11 7 2
46 -10 46 -16 0 -10 28 8 34 11 5 13 10 6 17 -6 6 -9 18 -6 27 3 13 17 17 56
19 29 1 63 6 77 12 14 5 30 8 35 7 6 -2 20 -6 33 -10z m1568 0 c49 -9 75 -9
87 -2 9 6 20 7 24 3 4 -5 3 -11 -3 -15 -15 -9 -27 -169 -15 -177 6 -3 8 -12 4
-20 -6 -18 -43 -20 -43 -3 0 6 -8 4 -20 -7 -12 -11 -34 -17 -60 -17 -49 1 -60
7 -60 33 0 17 -4 19 -22 13 -13 -4 -25 -10 -28 -13 -3 -4 -17 -8 -32 -9 -24
-2 -28 2 -28 26 0 15 -4 23 -8 17 -19 -26 -32 -13 -33 33 -1 26 -1 50 0 55 0
4 -12 7 -29 7 -16 0 -30 4 -30 9 0 4 11 6 25 3 19 -3 27 1 34 19 5 13 5 26 0
29 -5 4 19 7 52 8 33 1 68 6 77 12 21 12 21 12 108 -4z m232 -222 c18 -4 22
-11 22 -44 0 -49 -15 -59 -34 -23 -11 21 -15 23 -16 10 0 -14 -5 -17 -22 -11
-12 3 -28 13 -36 20 -7 8 -23 14 -34 14 -16 0 -19 -5 -16 -25 3 -14 -1 -30 -8
-36 -11 -9 -14 -8 -14 5 0 20 -21 21 -46 0 -18 -15 -18 -15 4 -10 23 4 23 4 6
-15 -13 -15 -14 -19 -3 -20 8 0 1 -5 -15 -9 -41 -13 -82 -2 -83 21 -1 11 5 19
15 20 14 0 13 2 -3 9 -17 7 -17 9 -2 9 9 1 17 5 17 10 0 14 -29 22 -57 15 -19
-5 -24 -4 -18 6 5 8 22 10 55 6 26 -4 59 -2 73 3 17 7 28 6 36 -2 10 -9 15 -8
25 6 7 9 20 17 29 17 9 0 18 4 22 10 3 5 12 7 20 3 8 -3 15 0 15 5 0 11 28 13
68 6z m-1641 -1585 c21 -12 42 -27 46 -35 9 -16 119 -19 181 -4 23 5 47 5 55
0 12 -7 9 -10 -14 -15 -17 -3 -39 -9 -50 -11 -27 -7 -163 -23 -257 -31 l-78
-6 0 -36 c0 -20 -6 -47 -13 -61 -16 -32 -72 -60 -121 -60 -44 0 -116 36 -116
59 0 32 -31 51 -87 51 -60 0 -95 20 -164 92 l-36 38 74 0 c66 0 76 -3 97 -25
30 -32 68 -32 99 -1 23 23 31 24 113 21 49 -1 113 -6 141 -10 46 -7 53 -5 59
11 7 20 24 44 30 44 2 0 20 -9 41 -21z m1213 -49 c0 -6 35 -10 84 -10 l83 0 7
-50 c6 -42 3 -56 -14 -79 -11 -16 -20 -33 -20 -39 0 -5 -6 -15 -14 -21 -10 -9
-25 -5 -62 15 -61 34 -74 49 -74 91 0 27 -4 33 -21 33 -18 0 -20 4 -14 27 8
34 45 61 45 33z"/>
<path d="M1920 21400 l0 -90 86 0 c77 0 86 2 91 20 4 15 14 20 38 20 25 0 35
-5 40 -20 6 -18 45 -30 45 -14 0 4 -14 45 -32 91 -42 111 -59 111 -105 -2 -17
-44 -32 -74 -33 -67 0 8 -16 12 -45 12 l-45 0 0 70 c0 63 -2 70 -20 70 -19 0
-20 -7 -20 -90z"/>
<path d="M2380 21400 l0 -90 65 0 c58 0 65 2 65 20 0 17 -7 20 -45 20 -33 0
-45 4 -45 15 0 9 9 15 25 15 18 0 25 5 25 20 0 15 -7 20 -25 20 -16 0 -25 6
-25 15 0 11 11 15 40 15 33 0 40 3 40 20 0 18 -7 20 -60 20 l-60 0 0 -90z"/>
<path d="M2547 21472 c-31 -34 -16 -64 46 -90 15 -7 25 -17 22 -22 -9 -14 -31
-12 -44 4 -12 14 -51 11 -51 -4 0 -15 52 -50 74 -50 36 0 68 29 64 58 -2 21
-13 32 -45 47 -24 11 -43 23 -43 27 0 12 28 10 35 -2 8 -12 16 -12 35 0 12 7
12 12 -4 29 -24 26 -67 27 -89 3z"/>
<path d="M2900 21400 c0 -83 1 -90 20 -90 16 0 20 7 20 35 0 33 2 35 33 35 60
0 90 63 45 94 -13 9 -43 16 -70 16 l-48 0 0 -90z"/>
<path d="M3060 21420 c0 -57 4 -74 20 -90 25 -25 71 -26 101 -1 19 16 24 30
27 90 4 71 4 71 -21 71 -25 0 -26 -2 -29 -67 -3 -65 -4 -68 -28 -68 -24 0 -25
3 -28 68 -3 59 -5 67 -22 67 -18 0 -20 -7 -20 -70z"/>
<path d="M3240 21400 l0 -90 53 0 c64 0 89 16 88 56 0 16 -1 43 -1 61 0 47
-22 63 -86 63 l-54 0 0 -90z"/>
<path d="M3813 21408 c-18 -46 -33 -87 -33 -91 0 -16 39 -5 45 13 5 15 15 20
40 20 24 0 34 -5 38 -20 3 -12 14 -20 27 -20 25 0 24 3 -19 108 -40 97 -57 95
-98 -10z"/>
<path d="M4213 21478 c-52 -25 -50 -132 3 -157 36 -16 58 -14 88 10 22 17 26
28 26 69 0 41 -4 52 -26 69 -29 23 -57 26 -91 9z"/>
<path d="M4360 21400 c0 -82 2 -90 19 -90 17 0 20 8 23 48 l3 47 34 -47 c20
-27 42 -48 53 -48 16 0 18 9 18 90 0 82 -2 90 -19 90 -17 0 -20 -8 -23 -47
l-3 -48 -33 48 c-20 29 -40 47 -52 47 -18 0 -20 -7 -20 -90z"/>
<path d="M4557 21472 c-31 -34 -16 -64 46 -90 15 -7 25 -17 22 -22 -9 -14 -31
-12 -44 4 -12 14 -51 11 -51 -4 0 -15 52 -50 74 -50 36 0 68 29 64 58 -2 21
-13 32 -45 47 -24 11 -43 23 -43 27 0 12 28 10 35 -2 8 -12 16 -12 35 0 12 7
12 12 -4 29 -24 26 -67 27 -89 3z"/>
<path d="M4780 20220 l0 -90 70 0 70 0 0 68 c0 87 -21 112 -93 112 l-47 0 0
-90z m90 60 c0 -13 7 -20 20 -20 18 0 20 -7 20 -60 l0 -60 -60 0 -60 0 0 80 0
80 40 0 c33 0 40 -3 40 -20z"/>
<path d="M4780 18520 l0 -90 70 0 70 0 0 68 c0 87 -21 112 -93 112 l-47 0 0
-90z m90 60 c0 -13 7 -20 20 -20 18 0 20 -7 20 -60 l0 -60 -60 0 -60 0 0 80 0
80 40 0 c33 0 40 -3 40 -20z"/>
<path d="M2221 16991 l-164 -6 -4 -214 c-3 -196 -8 -248 -20 -213 -3 6 -16 12
-29 12 -20 0 -24 -5 -24 -30 l0 -30 235 0 234 0 -2 243 -2 242 -30 1 c-16 0
-104 -2 -194 -5z"/>
<path d="M4780 16820 l0 -90 70 0 70 0 0 68 c0 87 -21 112 -93 112 l-47 0 0
-90z m90 60 c0 -13 7 -20 20 -20 18 0 20 -7 20 -60 l0 -60 -60 0 -60 0 0 80 0
80 40 0 c33 0 40 -3 40 -20z"/>
<path d="M4780 15120 l0 -90 70 0 70 0 0 68 c0 87 -21 112 -93 112 l-47 0 0
-90z m90 60 c0 -13 7 -20 20 -20 18 0 20 -7 20 -60 l0 -60 -60 0 -60 0 0 80 0
80 40 0 c33 0 40 -3 40 -20z"/>
<path d="M2189 13793 c-1 -5 -1 -12 0 -16 1 -4 -8 -3 -19 3 -18 10 -19 9 -9
-17 8 -21 6 -30 -8 -45 -25 -24 -56 -14 -72 25 -7 19 -15 27 -18 19 -3 -7 1
-19 7 -27 10 -13 8 -15 -16 -15 l-29 -1 37 -19 c44 -24 48 -29 37 -55 -4 -11
-8 -14 -8 -7 -1 6 -6 12 -12 12 -6 0 -8 -7 -5 -16 3 -8 2 -12 -4 -9 -6 3 -10
14 -10 24 0 19 -36 58 -46 48 -3 -3 -2 -16 2 -29 7 -22 7 -22 15 -3 6 15 8 13
6 -13 -1 -18 -8 -38 -16 -45 -11 -10 -13 -8 -7 10 8 24 -10 67 -24 58 -4 -3
-6 4 -3 15 3 11 11 20 18 20 7 0 15 6 18 14 4 10 -1 13 -18 11 -13 -1 -23 3
-22 9 1 6 -11 11 -28 10 -21 0 -30 -5 -30 -16 0 -9 -4 -20 -9 -25 -5 -5 -6 -2
-1 6 6 11 4 13 -9 8 -10 -4 -22 -7 -27 -7 -6 0 -7 -4 -4 -10 3 -5 -2 -11 -12
-12 -10 0 -25 -2 -33 -3 -8 -1 -22 2 -31 6 -8 4 -44 1 -78 -8 l-63 -16 4 -63
c2 -35 0 -58 -4 -51 -5 7 -8 0 -8 -18 0 -30 5 -33 138 -93 75 -34 142 -62 147
-62 6 -1 76 18 158 42 142 41 147 43 147 69 0 17 -7 29 -22 36 -15 6 -18 12
-10 17 7 4 12 2 12 -3 0 -6 5 -11 10 -11 6 0 10 22 10 49 0 40 -3 50 -20 54
-11 3 -20 0 -20 -6 0 -6 -7 -4 -16 5 -21 21 -21 64 0 87 14 15 14 20 4 24 -9
4 -7 6 4 6 10 1 16 9 15 21 -1 19 -16 29 -18 13z"/>
<path d="M4780 13420 l0 -90 70 0 70 0 0 68 c0 87 -21 112 -93 112 l-47 0 0
-90z m90 60 c0 -13 7 -20 20 -20 18 0 20 -7 20 -60 l0 -60 -60 0 -60 0 0 80 0
80 40 0 c33 0 40 -3 40 -20z"/>
<path d="M2463 13312 c-100 -35 -130 -49 -122 -58 7 -9 6 -15 -5 -21 -11 -6
-13 -17 -7 -43 l7 -35 7 43 c5 28 12 42 23 42 8 0 13 4 9 9 -7 13 9 21 137 65
l107 37 30 -22 31 -22 -28 -18 c-15 -9 -42 -31 -59 -47 -18 -17 -33 -28 -33
-24 0 12 -20 -23 -20 -35 0 -7 9 -13 20 -13 11 0 20 4 20 9 0 5 7 11 15 15 12
4 13 2 5 -13 -7 -15 -6 -20 6 -25 14 -5 49 17 42 28 -2 2 9 14 25 26 15 12 27
18 28 13 0 -4 4 2 9 15 13 30 19 28 65 -18 45 -44 50 -46 58 -25 4 9 -23 39
-81 88 -72 61 -93 74 -122 74 -19 0 -94 -20 -167 -45z"/>
<path d="M2420 13196 c0 -9 5 -14 10 -11 6 3 10 1 10 -6 0 -7 7 -20 16 -30 18
-20 16 -22 -81 -35 -38 -5 -45 -8 -30 -14 11 -4 22 -4 25 0 3 4 23 7 45 8 22
0 34 -2 26 -5 -7 -3 -21 -13 -31 -23 -10 -10 -24 -20 -31 -22 -8 -3 -11 -9 -7
-13 10 -11 94 30 101 49 6 16 37 23 37 8 0 -4 -16 -25 -35 -47 -33 -38 -44
-65 -27 -65 4 0 13 9 20 20 7 11 19 20 28 20 8 0 13 4 10 8 -2 4 4 19 14 32
19 25 19 25 34 5 8 -11 12 -24 9 -30 -2 -5 7 2 21 18 14 15 30 27 36 27 5 0
10 4 10 9 0 5 3 18 6 28 4 11 3 14 -3 7 -4 -6 -25 -17 -45 -23 -32 -10 -41
-10 -60 3 -12 9 -17 16 -10 16 6 0 12 7 12 15 0 17 -12 19 -26 5 -7 -7 -22 2
-47 27 -27 27 -37 32 -37 19z"/>
<path d="M2030 13138 c-1 -5 -3 -11 -4 -15 -1 -5 -5 -18 -9 -30 -5 -15 -1 -35
13 -63 17 -34 24 -39 39 -31 12 7 22 6 29 -1 8 -8 15 -8 26 1 11 9 15 9 19 -1
4 -10 8 -10 14 -1 5 6 22 10 38 9 l29 -4 -21 18 c-12 10 -19 20 -16 24 3 3 -2
8 -11 12 -9 3 -13 11 -9 17 3 5 1 7 -5 3 -6 -3 -16 0 -24 7 -7 8 -19 12 -26 9
-6 -2 -12 3 -12 12 0 10 -6 13 -17 9 -11 -4 -12 -8 -5 -11 7 -2 12 -8 12 -14
0 -7 -5 -7 -13 1 -8 6 -17 7 -22 3 -4 -4 -2 4 5 18 12 22 12 24 -3 12 -13 -11
-16 -10 -20 5 -3 10 -6 15 -7 11z"/>
<path d="M2960 12410 c0 -82 2 -90 19 -90 17 0 20 8 23 48 l3 47 30 -47 c17
-28 38 -48 48 -48 15 0 17 11 17 90 0 83 -1 90 -20 90 -17 0 -20 -7 -20 -47
l0 -48 -33 47 c-17 26 -40 48 -49 48 -16 0 -18 -11 -18 -90z"/>
<path d="M3130 12410 l0 -90 70 0 c63 0 70 2 70 20 0 17 -7 20 -45 20 -33 0
-45 4 -45 15 0 9 9 15 25 15 18 0 25 5 25 20 0 15 -7 20 -25 20 -16 0 -25 6
-25 15 0 11 11 15 40 15 33 0 40 3 40 20 0 18 -7 20 -65 20 l-65 0 0 -90z"/>
<path d="M3280 12496 c0 -7 30 -138 36 -158 3 -10 14 -18 24 -18 14 0 20 10
25 40 8 50 20 51 32 3 6 -27 15 -39 29 -41 17 -2 22 7 37 80 21 102 21 98 -2
98 -15 0 -22 -10 -29 -42 l-9 -43 -12 43 c-8 30 -17 42 -30 42 -13 0 -21 -12
-28 -42 -10 -43 -15 -40 -27 15 -4 18 -13 27 -26 27 -11 0 -20 -2 -20 -4z"/>
<path d="M4770 11280 c-6 -10 -10 -23 -10 -29 0 -19 72 -91 90 -91 18 0 90 72
90 91 0 6 -4 19 -10 29 -8 15 -22 18 -80 18 -58 0 -72 -3 -80 -18z"/>
<path d="M4770 9580 c-6 -10 -10 -23 -10 -29 0 -19 72 -91 90 -91 18 0 90 72
90 91 0 6 -4 19 -10 29 -8 15 -22 18 -80 18 -58 0 -72 -3 -80 -18z"/>
<path d="M4770 7880 c-6 -10 -10 -23 -10 -29 0 -19 72 -91 90 -91 18 0 90 72
90 91 0 6 -4 19 -10 29 -8 15 -22 18 -80 18 -58 0 -72 -3 -80 -18z"/>
<path d="M4770 6180 c-6 -10 -10 -23 -10 -29 0 -19 72 -91 90 -91 18 0 90 72
90 91 0 6 -4 19 -10 29 -8 15 -22 18 -80 18 -58 0 -72 -3 -80 -18z"/>
<path d="M4770 4480 c-6 -10 -10 -23 -10 -29 0 -19 72 -91 90 -91 18 0 90 72
90 91 0 6 -4 19 -10 29 -8 15 -22 18 -80 18 -58 0 -72 -3 -80 -18z"/>
</g>
</svg>
