<?xml version="1.0" standalone="no"?>
<!DOCTYPE svg PUBLIC "-//W3C//DTD SVG 20010904//EN"
 "http://www.w3.org/TR/2001/REC-SVG-20010904/DTD/svg10.dtd">
<svg xmlns="http://www.w3.org/2000/svg" width="100%" height="100%" viewBox="0 0 16 16" class="vcg-logo"><path class="fill" fill-rule="evenodd" clip-rule="evenodd" d="M15.993 8.005C16.008 12.32 12.533 15.998 8 16 3.516 16-.01 12.367.007 7.968.022 3.568 3.6-.052 8.1 0c4.436.052 7.916 3.685 7.893 8.005zM7.99 15.442c4.05.037 7.376-3.253 7.458-7.268.088-4.194-3.246-7.63-7.443-7.63C3.872.55.565 3.853.555 7.99c-.012 4.168 3.388 7.48 7.434 7.452z"/><path class="fill" fill-rule="evenodd" clip-rule="evenodd" d="M12.646 7.565c-.336.056-.673.107-1.01.167-1.04.186-2.063.432-3.076.73-.05.017-.11.05-.15.012-.054-.052.007-.108.028-.157.573-1.48 1.05-2.993 1.42-4.535.155-.646.294-1.295.402-1.952.024-.146.08-.157.195-.11.665.268 1.28.618 1.832 1.077.97.812 1.675 1.81 2.087 3.007.352 1.022.443 2.07.297 3.14-.186 1.356-.76 2.533-1.652 3.564-.117.136-.23.2-.43.188-1.655-.09-3.23-.498-4.74-1.17-.197-.086-.39-.185-.586-.273-.09-.042-.104-.093-.06-.18.37-.728.705-1.47 1.015-2.227.033-.08.096-.11.17-.137 1.358-.507 2.744-.905 4.187-1.09.027-.003.052-.016.08-.023l-.008-.032zM8.082 1.256c.124-.017.307.044.494.04.1 0 .126.055.116.15-.09.838-.205 1.675-.348 2.507-.266 1.555-.607 3.098-.967 4.635-.047.2-.14.3-.333.365-.667.232-1.326.482-1.973.764-.1.046-.18.038-.27-.034-1.184-.965-2.153-2.11-2.92-3.43-.266-.453-.28-.458-.048-.955C2.756 3.303 4.28 2.016 6.41 1.46c.526-.138 1.066-.182 1.672-.204zM11.368 13.83c-.435.27-.896.46-
1.375.608-.684.215-1.386.32-2.1.306-.8-.017-1.575-.165-2.322-.456-.128-.05-.153-.1-.072-.226.433-.67.848-1.353 1.22-2.062.052-.1.097-.14.21-.067 1.338.845 2.78 1.443 4.315 1.82.04.013.082.017.125.076zM4.807 10.37c.07.002.105.043.143.078.405.37.835.71 1.284 1.022.085.062.112.11.065.215-.35.772-.745 1.516-1.18 2.24-.06.104-.123.116-.227.06-.938-.505-1.73-1.177-2.356-2.042-.084-.115-.07-.173.044-.248.696-.447 1.402-.877 2.126-1.28.035-.02.073-.033.1-.045zM1.268 8.063c-.005-.68.082-1.283.248-1.875.016-.058.012-.15.085-.157.062-.004.074.083.098.133C2.363 7.54 3.243 8.766 4.32 9.85c.098.096.103.15-.03.21-.72.32-1.424.672-2.115 1.048-.103.056-.147.008-.19-.074-.29-.576-.498-1.182-.61-1.817-.07-.403-.12-.807-.107-1.154zM7.13 9.228c.09.015.05.077.037.118-.057.196-.114.39-.18.584-.093.27-.196.535-.29.804-.05.148-.112.17-.25.083-.33-.207-.666-.407-.982-.637-.074-.054-.122-.104-.007-.16.53-.268 1.057-.538 1.604-.77l.067-.022z"/></svg>
